<?xml version="1.0" encoding="UTF-8"?>
<svg width="176px" height="176px" viewBox="0 0 176 176" version="1.1" xmlns="http://www.w3.org/2000/svg" xmlns:xlink="http://www.w3.org/1999/xlink">
    <!-- Generator: Sketch 51.3 (57544) - http://www.bohemiancoding.com/sketch -->
    <title>etiqueta_ambiental_C</title>
    <desc>Created with Sketch.</desc>
    <defs></defs>
    <g id="Opcions" stroke="none" stroke-width="1" fill="none" fill-rule="evenodd">
        <g id="05-Cercador_etiquetes_ok_D" transform="translate(-632.000000, -1026.000000)">
            <g id="etiqueta_ambiental_C" transform="translate(640.000000, 1034.000000)">
                <g id="Group-36">
                    <g id="Group-6">
                        <ellipse id="Oval" stroke-opacity="0.25" stroke="#FFFFFF" stroke-width="8" fill="#6BB233" cx="79.7146741" cy="79.8503929" rx="83.7146741" ry="83.8503929"></ellipse>
                        <rect id="Rectangle" fill="#FFFFFF" x="50.9714022" y="14.2041564" width="57.4865438" height="11.5168836"></rect>
                        <rect id="Rectangle" fill="#FFFFFF" x="87.7627902" y="28.4083129" width="39.4740934" height="39.5413003"></rect>
                        <rect id="Rectangle" fill="#FFFFFF" opacity="0.7" x="87.7627902" y="73.708055" width="46.3724787" height="35.7023391"></rect>
                        <rect id="Rectangle-2" fill="#A8A9AD" x="49.4384277" y="114.401044" width="60.1692492" height="29.9438973"></rect>
                        <path d="M53.6313406,140.265551 C53.6313406,140.243477 53.9339973,139.246717 54.3039108,138.05053 C55.0371389,135.679498 55.1771199,135.32701 55.6499153,134.661151 C56.6434645,133.26189 58.1701255,132.382778 60.0308451,132.138445 C60.4362906,132.085204 61.3689658,132.075469 66.0634304,132.075469 L71.6164201,132.075469 L71.592551,132.169948 C71.5794222,132.221913 71.4021363,132.840754 71.1985811,133.545151 L70.8284804,134.825873 L67.6689706,134.847249 C64.5300236,134.868482 64.5076451,134.869234 64.2305073,134.96317 C63.9168645,135.069477 63.5197104,135.342865 63.3452421,135.572556 C63.1215438,135.867057 63.0257749,136.141153 62.520434,137.933201 C62.2403925,138.926285 61.973637,139.866358 61.9276432,140.022249 L61.8440204,140.305687 L57.7376801,140.305687 C55.1545773,140.305687 53.6313406,140.290798 53.6313406,140.265551 Z" id="path6794" fill="#000000" fill-rule="nonzero"></path>
                        <path d="M97.797104,134.721901 C97.846505,134.574364 100.336536,126.037163 100.375179,125.882814 L100.404093,125.767339 L98.576049,125.767339 C97.5158799,125.767339 96.7480047,125.751409 96.7480047,125.729413 C96.7480047,125.708551 96.815713,125.496632 96.8984657,125.258479 C97.1406975,124.561384 97.4503284,124.17847 97.9807678,123.920014 C98.51544,123.659496 98.3625545,123.667794 102.628371,123.667794 C106.315778,123.667794 106.519775,123.671668 106.499439,123.741277 C106.487634,123.781692 106.391109,124.126546 106.284929,124.507612 C106.178754,124.888681 106.0543,125.32801 106.00836,125.4839 L105.924833,125.767339 L104.2949,125.767339 L102.664965,125.767339 L102.603571,125.977133 C102.5698,126.092519 101.979071,128.133278 101.290832,130.512151 L100.039487,134.837376 L98.8989638,134.837376 L97.7584337,134.837376 L97.797104,134.721901 Z M86.5778526,134.774877 C85.9169413,134.630861 85.5284505,134.246946 85.4235477,133.634162 C85.3806043,133.383308 85.3830107,133.283813 85.4387536,133.005493 C85.5715215,132.342595 87.3176567,126.387306 87.4661724,126.090877 C88.0809092,124.863882 89.0643168,124.116323 90.522952,123.767191 C90.775664,123.706704 91.1669193,123.694563 93.3420419,123.679722 C95.4083349,123.66562 95.8676226,123.672517 95.8672953,123.717628 C95.866201,123.869404 95.3963546,125.294706 95.3028658,125.42984 C95.243994,125.514937 95.1159168,125.630408 95.0182483,125.686447 L94.8406649,125.788334 L92.9333262,125.812283 C91.3143533,125.832613 90.98796,125.847035 90.7744698,125.907672 C90.4182819,126.008837 90.0428572,126.200779 89.8274206,126.391861 C89.4597199,126.717996 89.4328557,126.791309 88.5556769,129.862477 C88.1075153,131.431574 87.7445161,132.719065 87.7490124,132.72357 C87.7535066,132.728072 88.436075,132.737847 89.2658278,132.745291 L90.7744698,132.758826 L91.0069397,132.649602 C91.5775357,132.381516 91.6389235,132.267431 92.1626279,130.501814 C92.1829528,130.433292 92.1177359,130.42833 91.1964896,130.42833 C90.5452307,130.42833 90.208556,130.413559 90.208556,130.384985 C90.208556,130.361144 90.26801,130.187205 90.3406779,129.998454 C90.4998415,129.585025 90.7399771,129.306789 91.0835673,129.137704 L91.3194234,129.021634 L93.0486049,129.009383 C93.9996543,129.002646 94.7777855,129.009915 94.7777855,129.025645 C94.7777855,129.041326 94.512323,129.963293 94.1878676,131.074456 C93.5265961,133.339119 93.475595,133.460746 92.9784158,133.958708 C92.5494571,134.388341 92.0349046,134.653624 91.3890951,134.778091 C90.9595169,134.860884 86.960297,134.858213 86.5778526,134.774866 L86.5778526,134.774877 Z M79.1531547,132.735718 C80.1658011,132.658948 80.7005955,132.465158 81.1986724,131.994496 C81.7689614,131.455599 82.160188,130.633988 82.5380766,129.181617 C83.0254907,127.308298 82.9098645,126.350549 82.1518562,125.982476 C81.7489213,125.786819 81.493837,125.763009 79.943348,125.776322 L78.5441232,125.788334 L77.5434826,129.252584 C76.9931307,131.157923 76.5428293,132.731007 76.5428144,132.748328 C76.5427804,132.795398 78.4900208,132.785988 79.1531547,132.735718 Z M73.712114,134.787202 C73.7225686,134.757059 74.4028453,132.398755 75.2238509,129.546521 C76.0448565,126.69429 76.7635113,124.204753 76.8208617,124.014219 L76.9251355,123.667794 L79.4482502,123.667794 C81.0305491,123.667794 82.1120449,123.685177 82.3486425,123.714222 C84.7929781,124.014279 85.5394704,125.722035 84.6960862,129.0845 C84.3060198,130.639645 83.8466365,131.778599 83.3043295,132.535087 C83.0907755,132.832988 82.6055278,133.345761 82.3067222,133.589285 C81.8568681,133.955916 81.0360697,134.412115 80.5239449,134.580153 C79.827998,134.808506 79.841708,134.807636 76.6584927,134.82537 C74.232136,134.838884 73.6965681,134.831925 73.712114,134.787084 L73.712114,134.787202 Z" id="path6762" fill="#000000" fill-rule="nonzero"></path>
                        <path d="M52.8876203,130.685732 C52.88759,130.656862 53.061654,130.023851 53.2744293,129.279036 L53.6612936,127.92483 L63.2674585,127.92483 L72.873623,127.92483 L72.4861437,129.264793 C72.2730306,130.001773 72.08716,130.634785 72.0731005,130.671489 C72.0498423,130.732201 71.1834071,130.73822 62.4676065,130.73822 C54.8316376,130.73822 52.8876645,130.727568 52.8876203,130.685732 Z" id="path6760" fill="#000000" fill-rule="nonzero"></path>
                        <path d="M54.0852142,126.390245 C54.1102294,126.29026 54.5337208,124.82345 54.7823127,123.975768 L54.8654337,123.692329 L57.8923458,123.691584 C61.2325699,123.690733 61.2649801,123.688594 61.7467271,123.431889 C62.0677571,123.260822 62.4119073,122.917309 62.5510064,122.629094 C62.6087425,122.509467 62.9211911,121.47736 63.2453373,120.335523 C63.5694825,119.193686 63.8406185,118.25352 63.8478591,118.246267 C63.8551051,118.239014 65.7095833,118.237896 67.9689334,118.243781 L72.0768417,118.254487 L71.3751277,120.501001 C70.9714512,121.793357 70.6078018,122.881274 70.5189346,123.062446 C70.2489227,123.612913 69.8383572,124.184766 69.3908745,124.633662 C68.3178498,125.710077 66.9132373,126.322537 65.19505,126.463192 C64.9019105,126.487189 62.4731091,126.50465 59.3741698,126.505036 L54.0563236,126.505675 L54.0852142,126.3902 L54.0852142,126.390245 Z" id="path6756" fill="#000000" fill-rule="nonzero"></path>
                        <rect id="Rectangle-9" fill="#FFFFFF" x="28.7432719" y="28.4083129" width="16.4794759" height="81.0020813"></rect>
                        <g id="Group-4" transform="translate(32.958952, 36.470131)" fill="#000000">
                            <rect id="Rectangle-3" x="0" y="0" width="8.04811613" height="2.38681063"></rect>
                            <rect id="Rectangle-3" x="0" y="1.9194806" width="8.04811613" height="2.38681063"></rect>
                            <rect id="Rectangle-3" x="0" y="6.91013015" width="8.04811613" height="2.38681063"></rect>
                            <rect id="Rectangle-3" x="0" y="8.44571463" width="8.04811613" height="2.39216566"></rect>
                            <rect id="Rectangle-3" x="0" y="12.2846758" width="8.04811613" height="2.39216566"></rect>
                            <rect id="Rectangle-3" x="0" y="16.5075331" width="8.04811613" height="2.39216566"></rect>
                            <rect id="Rectangle-3" x="0" y="24.5693517" width="8.04811613" height="2.39216566"></rect>
                            <rect id="Rectangle-3" x="0" y="28.4083129" width="8.04811613" height="2.39216566"></rect>
                            <rect id="Rectangle-3" x="0" y="32.2472741" width="8.04811613" height="2.39216566"></rect>
                            <rect id="Rectangle-3" x="0" y="36.4701314" width="8.04811613" height="2.39216566"></rect>
                            <rect id="Rectangle-3" x="0" y="40.6929887" width="8.04811613" height="2.39216566"></rect>
                            <rect id="Rectangle-3" x="0" y="44.5319499" width="8.04811613" height="2.39216566"></rect>
                            <rect id="Rectangle-3" x="0" y="47.2192227" width="8.04811613" height="2.39216566"></rect>
                            <rect id="Rectangle-3" x="0" y="52.5937684" width="8.04811613" height="2.39216566"></rect>
                            <rect id="Rectangle-3" x="0" y="60.6555869" width="8.04811613" height="2.39216566"></rect>
                            <rect id="Rectangle-3" x="0" y="61.4233791" width="8.04811613" height="2.39216566"></rect>
                            <rect id="Rectangle-3" x="0" y="33.3989624" width="8.04811613" height="2.38681063"></rect>
                            <rect id="Rectangle-3" x="0" y="37.6218197" width="8.04811613" height="2.38681063"></rect>
                            <rect id="Rectangle-3" x="0" y="49.9064956" width="8.04811613" height="2.38681063"></rect>
                            <rect id="Rectangle-3" x="0" y="53.7454568" width="8.04811613" height="2.38681063"></rect>
                            <rect id="Rectangle-3" x="0" y="56.0488335" width="8.04811613" height="2.38681063"></rect>
                            <rect id="Rectangle-3" x="0" y="58.7361063" width="8.04811613" height="2.38681063"></rect>
                            <rect id="Rectangle-3" x="0" y="63.7267559" width="8.04811613" height="2.38681063"></rect>
                            <rect id="Rectangle-3" x="0" y="48.3709111" width="8.04811613" height="2.38681063"></rect>
                            <rect id="Rectangle-3" x="0" y="41.4607809" width="8.04811613" height="2.68727284"></rect>
                            <rect id="Rectangle-3" x="0" y="45.2997421" width="8.04811613" height="2.38681063"></rect>
                            <rect id="Rectangle-3" x="0" y="20.7303905" width="8.04811613" height="2.39216566"></rect>
                            <rect id="Rectangle-3" x="0" y="21.4981827" width="8.04811613" height="2.38681063"></rect>
                            <rect id="Rectangle-3" x="0" y="22.6498711" width="8.04811613" height="2.38681063"></rect>
                            <rect id="Rectangle-3" x="0" y="25.3371439" width="8.04811613" height="2.68727284"></rect>
                            <rect id="Rectangle-3" x="0" y="17.6592215" width="8.04811613" height="2.38681063"></rect>
                            <rect id="Rectangle-3" x="0" y="29.5600012" width="8.04811613" height="2.38681063"></rect>
                            <rect id="Rectangle-3" x="0" y="3.8389612" width="8.04811613" height="2.38681063"></rect>
                            <rect id="Rectangle-3" x="0" y="9.21350687" width="8.04811613" height="2.68727284"></rect>
                            <rect id="Rectangle-3" x="0" y="13.0524681" width="8.04811613" height="2.68727284"></rect>
                        </g>
                        <path d="M-10.0788582,76.054545 L-10.0788582,75.459581 C-9.51933471,75.4049705 -9.12910878,75.3137149 -8.90816872,75.1858114 C-8.68722867,75.0579078 -8.52224344,74.755399 -8.41320808,74.2782757 L-7.80203929,74.2782757 L-7.80203929,80.4262371 L-8.62840836,80.4262371 L-8.62840836,76.054545 L-10.0788582,76.054545 Z M-1.9764665,74.7633007 C-1.70531279,75.1211431 -1.56973797,75.4897585 -1.56973797,75.8691577 L-2.33585096,75.8691577 C-2.38176058,75.6248476 -2.45492795,75.4337137 -2.55535525,75.2957504 C-2.74186309,75.0370691 -3.02448996,74.9077304 -3.40324434,74.9077304 C-3.8365164,74.9077304 -4.1808334,75.1082054 -4.43620567,75.5091614 C-4.69157795,75.9101174 -4.83360871,76.4842375 -4.86230222,77.231539 C-4.68440244,76.9699835 -4.46059639,76.7745384 -4.19087736,76.6451977 C-3.94411314,76.5302282 -3.66865954,76.4727444 -3.36450829,76.4727444 C-2.84802504,76.4727444 -2.39754363,76.6380105 -2.01305055,76.9685477 C-1.62855746,77.2990849 -1.4363138,77.7920091 -1.4363138,78.4473351 C-1.4363138,79.0078112 -1.61851488,79.5043281 -1.98292251,79.9369007 C-2.34733013,80.3694733 -2.86667494,80.5857564 -3.54097252,80.5857564 C-4.11771215,80.5857564 -4.61553714,80.3665992 -5.03446245,79.9282781 C-5.45338775,79.489957 -5.66284726,78.7520078 -5.66284726,77.7144084 C-5.66284726,76.9469872 -5.56959474,76.2959824 -5.3830869,75.7613744 C-5.02441797,74.7381461 -4.36878102,74.2265397 -3.41615636,74.2265397 C-2.72751202,74.2265397 -2.2476202,74.4054582 -1.9764665,74.7633007 Z M-2.55750725,79.4842107 C-2.35521798,79.2097211 -2.25407486,78.8856558 -2.25407486,78.5120051 C-2.25407486,78.195839 -2.34445807,77.8947673 -2.52522721,77.6087807 C-2.70599634,77.3227942 -3.03453215,77.179803 -3.51084448,77.179803 C-3.84368924,77.179803 -4.13564136,77.2904595 -4.38670961,77.5117757 C-4.63777786,77.7330919 -4.7633101,78.0664984 -4.7633101,78.5120051 C-4.7633101,78.9029012 -4.64925509,79.2312778 -4.42114166,79.4971447 C-4.19302822,79.7630116 -3.87668697,79.8959431 -3.47210843,79.8959431 C-3.06466053,79.8959431 -2.75979652,79.7587003 -2.55750725,79.4842107 Z M-0.416163211,74.0928883 L0.810478373,74.0928883 L2.62676872,79.4475644 L4.43014705,74.0928883 L5.64387662,74.0928883 L5.64387662,80.4262371 L4.83041956,80.4262371 L4.83041956,76.688311 C4.83041956,76.5589704 4.83328887,76.344843 4.83902758,76.0459224 C4.84476628,75.7470018 4.84763559,75.4265292 4.84763559,75.084495 L3.04425726,80.4262371 L2.19636816,80.4262371 L0.380077817,75.084495 L0.380077817,75.278505 C0.380077817,75.4337138 0.383664453,75.6701162 0.390837831,75.9877194 C0.39801121,76.3053225 0.401597845,76.5388507 0.401597845,76.688311 L0.401597845,80.4262371 L-0.416163211,80.4262371 L-0.416163211,74.0928883 Z M11.5017295,74.554201 C11.9436096,74.9767138 12.1889354,75.4567041 12.2377144,75.9941864 L11.4027373,75.9941864 C11.3080487,75.5860448 11.1193917,75.262698 10.8367606,75.0241364 C10.5541295,74.7855747 10.1574476,74.6662957 9.64670306,74.6662957 C9.02405381,74.6662957 8.52120752,74.8854529 8.13814911,75.323774 C7.7550907,75.7620951 7.56356437,76.4339378 7.56356437,77.3393224 C7.56356437,78.0808754 7.73644019,78.6823004 8.08219704,79.1436154 C8.42795388,79.6049304 8.94371205,79.8355844 9.62948703,79.8355844 C10.2607443,79.8355844 10.7413535,79.592715 11.0713289,79.1069691 C11.2463593,78.851162 11.3769129,78.5148814 11.4629934,78.0981171 L12.2979705,78.0981171 C12.2233673,78.7649399 11.9766068,79.3239706 11.5576815,79.7752257 C11.055545,80.3184565 10.3783883,80.5900677 9.5261909,80.5900677 C8.79163695,80.5900677 8.17473565,80.3673177 7.67546851,79.9218111 C7.01838704,79.3325926 6.68985124,78.4229103 6.68985124,77.192737 C6.68985124,76.2586101 6.93661176,75.4926376 7.43014019,74.8947964 C7.96383955,74.2452189 8.69981714,73.920435 9.63809505,73.920435 C10.4386441,73.920435 11.0598493,74.1316882 11.5017295,74.554201 Z M13.0598807,77.567823 L15.2204915,77.567823 L15.2204915,78.3654197 L13.0598807,78.3654197 L13.0598807,77.567823 Z M19.7699267,75.239703 C20.0453844,75.7484429 20.1831112,76.4454348 20.1831112,77.3306997 C20.1831112,78.1699768 20.0582963,78.8640945 19.8086627,79.4130737 C19.4471244,80.2006146 18.8560469,80.5943791 18.0354124,80.5943791 C17.2951198,80.5943791 16.7442126,80.2724694 16.3826743,79.6286404 C16.0813924,79.0911582 15.9307537,78.3697356 15.9307537,77.464351 C15.9307537,76.7630373 16.0211369,76.1608938 16.2019061,75.6579024 C16.5404895,74.7209012 17.1530869,74.2524077 18.0397164,74.2524077 C18.8373961,74.2524077 19.4141271,74.5815028 19.7699267,75.239703 Z M18.9909017,79.3527151 C19.2290578,78.9963097 19.3481341,78.332371 19.3481341,77.360879 C19.3481341,76.6595653 19.2620549,76.082571 19.0898938,75.6298787 C18.9177327,75.1771864 18.5834583,74.9508437 18.0870605,74.9508437 C17.6308336,74.9508437 17.2972765,75.1656897 17.0863792,75.595388 C16.8754819,76.0250864 16.7700348,76.6581275 16.7700348,77.4945304 C16.7700348,78.1239882 16.8374635,78.6298463 16.9723231,79.0121197 C17.1789164,79.5955898 17.5318413,79.8873204 18.0311084,79.8873204 C18.4328176,79.8873204 18.7527455,79.7091204 18.9909017,79.3527151 Z M24.6981143,75.239703 C24.973572,75.7484429 25.1112988,76.4454348 25.1112988,77.3306997 C25.1112988,78.1699768 24.9864839,78.8640945 24.7368504,79.4130737 C24.3753121,80.2006146 23.7842346,80.5943791 22.9636001,80.5943791 C22.2233074,80.5943791 21.6724002,80.2724694 21.3108619,79.6286404 C21.00958,79.0911582 20.8589414,78.3697356 20.8589414,77.464351 C20.8589414,76.7630373 20.9493246,76.1608938 21.1300937,75.6579024 C21.4686772,74.7209012 22.0812745,74.2524077 22.9679041,74.2524077 C23.7655838,74.2524077 24.3423147,74.5815028 24.6981143,75.239703 Z M23.9190893,79.3527151 C24.1572455,78.9963097 24.2763218,78.332371 24.2763218,77.360879 C24.2763218,76.6595653 24.1902425,76.082571 24.0180814,75.6298787 C23.8459203,75.1771864 23.5116459,74.9508437 23.0152481,74.9508437 C22.5590213,74.9508437 22.2254642,75.1656897 22.0145668,75.595388 C21.8036695,76.0250864 21.6982224,76.6581275 21.6982224,77.4945304 C21.6982224,78.1239882 21.7656512,78.6298463 21.9005107,79.0121197 C22.107104,79.5955898 22.4600289,79.8873204 22.9592961,79.8873204 C23.3610053,79.8873204 23.6809331,79.7091204 23.9190893,79.3527151 Z M29.6263019,75.239703 C29.9017597,75.7484429 30.0394865,76.4454348 30.0394865,77.3306997 C30.0394865,78.1699768 29.9146716,78.8640945 29.665038,79.4130737 C29.3034997,80.2006146 28.7124222,80.5943791 27.8917877,80.5943791 C27.151495,80.5943791 26.6005878,80.2724694 26.2390496,79.6286404 C25.9377677,79.0911582 25.787129,78.3697356 25.787129,77.464351 C25.787129,76.7630373 25.8775122,76.1608938 26.0582813,75.6579024 C26.3968648,74.7209012 27.0094621,74.2524077 27.8960917,74.2524077 C28.6937714,74.2524077 29.2705024,74.5815028 29.6263019,75.239703 Z M28.8472769,79.3527151 C29.0854331,78.9963097 29.2045094,78.332371 29.2045094,77.360879 C29.2045094,76.6595653 29.1184302,76.082571 28.9462691,75.6298787 C28.774108,75.1771864 28.4398336,74.9508437 27.9434358,74.9508437 C27.4872089,74.9508437 27.1536518,75.1656897 26.9427545,75.595388 C26.7318572,76.0250864 26.6264101,76.6581275 26.6264101,77.4945304 C26.6264101,78.1239882 26.6938388,78.6298463 26.8286983,79.0121197 C27.0352916,79.5955898 27.3882166,79.8873204 27.8874837,79.8873204 C28.2891929,79.8873204 28.6091208,79.7091204 28.8472769,79.3527151 Z M34.5544896,75.239703 C34.8299473,75.7484429 34.9676741,76.4454348 34.9676741,77.3306997 C34.9676741,78.1699768 34.8428592,78.8640945 34.5932256,79.4130737 C34.2316874,80.2006146 33.6406098,80.5943791 32.8199753,80.5943791 C32.0796827,80.5943791 31.5287755,80.2724694 31.1672372,79.6286404 C30.8659553,79.0911582 30.7153166,78.3697356 30.7153166,77.464351 C30.7153166,76.7630373 30.8056998,76.1608938 30.986469,75.6579024 C31.3250524,74.7209012 31.9376498,74.2524077 32.8242793,74.2524077 C33.621959,74.2524077 34.19869,74.5815028 34.5544896,75.239703 Z M33.7754646,79.3527151 C34.0136207,78.9963097 34.132697,78.332371 34.132697,77.360879 C34.132697,76.6595653 34.0466178,76.082571 33.8744567,75.6298787 C33.7022956,75.1771864 33.3680212,74.9508437 32.8716234,74.9508437 C32.4153965,74.9508437 32.0818394,75.1656897 31.8709421,75.595388 C31.6600448,76.0250864 31.5545977,76.6581275 31.5545977,77.4945304 C31.5545977,78.1239882 31.6220265,78.6298463 31.756886,79.0121197 C31.9634793,79.5955898 32.3164042,79.8873204 32.8156713,79.8873204 C33.2173805,79.8873204 33.5373084,79.7091204 33.7754646,79.3527151 Z M39.4826772,75.239703 C39.758135,75.7484429 39.8958618,76.4454348 39.8958618,77.3306997 C39.8958618,78.1699768 39.7710468,78.8640945 39.5214133,79.4130737 C39.159875,80.2006146 38.5687975,80.5943791 37.748163,80.5943791 C37.0078703,80.5943791 36.4569631,80.2724694 36.0954248,79.6286404 C35.7941429,79.0911582 35.6435043,78.3697356 35.6435043,77.464351 C35.6435043,76.7630373 35.7338875,76.1608938 35.9146566,75.6579024 C36.2532401,74.7209012 36.8658374,74.2524077 37.752467,74.2524077 C38.5501467,74.2524077 39.1268776,74.5815028 39.4826772,75.239703 Z M38.7036522,79.3527151 C38.9418084,78.9963097 39.0608847,78.332371 39.0608847,77.360879 C39.0608847,76.6595653 38.9748054,76.082571 38.8026443,75.6298787 C38.6304833,75.1771864 38.2962088,74.9508437 37.799811,74.9508437 C37.3435842,74.9508437 37.0100271,75.1656897 36.7991298,75.595388 C36.5882324,76.0250864 36.4827853,76.6581275 36.4827853,77.4945304 C36.4827853,78.1239882 36.5502141,78.6298463 36.6850736,79.0121197 C36.8916669,79.5955898 37.2445918,79.8873204 37.743859,79.8873204 C38.1455682,79.8873204 38.465496,79.7091204 38.7036522,79.3527151 Z M44.4108649,75.239703 C44.6863226,75.7484429 44.8240494,76.4454348 44.8240494,77.3306997 C44.8240494,78.1699768 44.6992345,78.8640945 44.4496009,79.4130737 C44.0880626,80.2006146 43.4969851,80.5943791 42.6763506,80.5943791 C41.936058,80.5943791 41.3851508,80.2724694 41.0236125,79.6286404 C40.7223306,79.0911582 40.5716919,78.3697356 40.5716919,77.464351 C40.5716919,76.7630373 40.6620751,76.1608938 40.8428442,75.6579024 C41.1814277,74.7209012 41.794025,74.2524077 42.6806546,74.2524077 C43.4783343,74.2524077 44.0550653,74.5815028 44.4108649,75.239703 Z M43.6318398,79.3527151 C43.869996,78.9963097 43.9890723,78.332371 43.9890723,77.360879 C43.9890723,76.6595653 43.9029931,76.082571 43.730832,75.6298787 C43.5586709,75.1771864 43.2243965,74.9508437 42.7279987,74.9508437 C42.2717718,74.9508437 41.9382147,75.1656897 41.7273174,75.595388 C41.5164201,76.0250864 41.410973,76.6581275 41.410973,77.4945304 C41.410973,78.1239882 41.4784017,78.6298463 41.6132612,79.0121197 C41.8198545,79.5955898 42.1727795,79.8873204 42.6720466,79.8873204 C43.0737558,79.8873204 43.3936837,79.7091204 43.6318398,79.3527151 Z M49.3390525,75.239703 C49.6145102,75.7484429 49.752237,76.4454348 49.752237,77.3306997 C49.752237,78.1699768 49.6274221,78.8640945 49.3777885,79.4130737 C49.0162503,80.2006146 48.4251727,80.5943791 47.6045383,80.5943791 C46.8642456,80.5943791 46.3133384,80.2724694 45.9518001,79.6286404 C45.6505182,79.0911582 45.4998795,78.3697356 45.4998795,77.464351 C45.4998795,76.7630373 45.5902627,76.1608938 45.7710319,75.6579024 C46.1096153,74.7209012 46.7222127,74.2524077 47.6088423,74.2524077 C48.4065219,74.2524077 48.9832529,74.5815028 49.3390525,75.239703 Z M48.5600275,79.3527151 C48.7981837,78.9963097 48.9172599,78.332371 48.9172599,77.360879 C48.9172599,76.6595653 48.8311807,76.082571 48.6590196,75.6298787 C48.4868585,75.1771864 48.1525841,74.9508437 47.6561863,74.9508437 C47.1999594,74.9508437 46.8664024,75.1656897 46.655505,75.595388 C46.4446077,76.0250864 46.3391606,76.6581275 46.3391606,77.4945304 C46.3391606,78.1239882 46.4065894,78.6298463 46.5414489,79.0121197 C46.7480422,79.5955898 47.1009671,79.8873204 47.6002342,79.8873204 C48.0019434,79.8873204 48.3218713,79.7091204 48.5600275,79.3527151 Z M54.2672401,75.239703 C54.5426979,75.7484429 54.6804247,76.4454348 54.6804247,77.3306997 C54.6804247,78.1699768 54.5556097,78.8640945 54.3059762,79.4130737 C53.9444379,80.2006146 53.3533604,80.5943791 52.5327259,80.5943791 C51.7924332,80.5943791 51.241526,80.2724694 50.8799878,79.6286404 C50.5787059,79.0911582 50.4280672,78.3697356 50.4280672,77.464351 C50.4280672,76.7630373 50.5184504,76.1608938 50.6992195,75.6579024 C51.037803,74.7209012 51.6504003,74.2524077 52.5370299,74.2524077 C53.3347096,74.2524077 53.9114406,74.5815028 54.2672401,75.239703 Z M53.4882151,79.3527151 C53.7263713,78.9963097 53.8454476,78.332371 53.8454476,77.360879 C53.8454476,76.6595653 53.7593683,76.082571 53.5872073,75.6298787 C53.4150462,75.1771864 53.0807717,74.9508437 52.584374,74.9508437 C52.1281471,74.9508437 51.79459,75.1656897 51.5836927,75.595388 C51.3727953,76.0250864 51.2673483,76.6581275 51.2673483,77.4945304 C51.2673483,78.1239882 51.334777,78.6298463 51.4696365,79.0121197 C51.6762298,79.5955898 52.0291547,79.8873204 52.5284219,79.8873204 C52.9301311,79.8873204 53.250059,79.7091204 53.4882151,79.3527151 Z" id="16MC-00000000" fill="#000000" transform="translate(22.300783, 77.257407) rotate(-90.000000) translate(-22.300783, -77.257407) "></path>
                        <path d="M54.972256,53.271585 C58.1160671,50.0874307 62.1156334,48.4953774 66.971075,48.4953774 C73.4682846,48.4953774 78.2188612,50.6297785 81.2229473,54.8986447 C82.882181,57.2955081 83.7729141,59.7010831 83.8951734,62.1154419 L75.8260986,62.1154419 C75.3021301,60.2609344 74.6297139,58.8613272 73.8088299,57.9165781 C72.3417181,56.2370242 70.1672814,55.3972598 67.2854545,55.3972598 C64.3512309,55.3972598 62.0370713,56.5825522 60.3429065,58.9531726 C58.6487416,61.323793 57.8016719,64.6784766 57.8016719,69.0173243 C57.8016719,73.3561719 58.6967713,76.605885 60.4869971,78.7665612 C62.2772228,80.9272373 64.5520853,82.0075592 67.3116528,82.0075592 C70.1410828,82.0075592 72.2980542,81.0803194 73.7826316,79.2258119 C74.6035156,78.2285768 75.2846645,76.7327465 75.8260986,74.7382762 L83.8165785,74.7382762 C83.1179538,78.9546564 81.3321213,82.3836942 78.4590272,85.0254925 C75.5859332,87.6672909 71.9051096,88.9881703 67.416446,88.9881703 C61.8623798,88.9881703 57.496041,87.203671 54.3172987,83.6346189 C51.1385564,80.0480715 49.549209,75.1319509 49.549209,68.8861098 C49.549209,62.1329034 51.3568733,56.9281138 54.972256,53.271585 Z" id="C" fill="#000000"></path>
                    </g>
                </g>
            </g>
        </g>
    </g>
</svg>