<?xml version="1.0" encoding="UTF-8"?>
<svg width="176px" height="175px" viewBox="0 0 176 175" version="1.1" xmlns="http://www.w3.org/2000/svg" xmlns:xlink="http://www.w3.org/1999/xlink">
    <!-- Generator: Sketch 51.3 (57544) - http://www.bohemiancoding.com/sketch -->
    <title>etiqueta_ambiental_ECO</title>
    <desc>Created with Sketch.</desc>
    <defs>
        <ellipse id="path-1" cx="79.4201747" cy="79.1547306" rx="79.4201747" ry="79.1547306"></ellipse>
    </defs>
    <g id="Opcions" stroke="none" stroke-width="1" fill="none" fill-rule="evenodd">
        <g id="03-Cercador_etiquetes_ok_B" transform="translate(-632.000000, -1026.000000)">
            <g id="etiqueta_ambiental_ECO" transform="translate(640.000000, 1034.000000)">
                <g id="Group-2" transform="translate(0.670920, 0.149844)">
                    <mask id="mask-2" fill="white">
                        <use xlink:href="#path-1"></use>
                    </mask>
                    <ellipse stroke="#FFFFFF" stroke-width="2.85164928" cx="79.4201747" cy="79.1547306" rx="77.9943501" ry="77.7289059"></ellipse>
                    <g mask="url(#mask-2)" id="Rectangle-14">
                        <g transform="translate(-19.940127, -5.860277)">
                            <rect fill="#6BB232" x="0" y="0" width="100.433442" height="166.946129"></rect>
                            <rect fill="#0083CA" x="100.433442" y="0" width="100.433442" height="166.946129"></rect>
                        </g>
                    </g>
                    <text id="E-C-O" mask="url(#mask-2)" font-family="SourceSansPro-Bold, Source Sans Pro" font-size="31.7755206" font-weight="bold" line-spacing="26.886979" fill="#000000">
                        <tspan x="48.7683698" y="53.1765153">E</tspan>
                        <tspan x="48.2281859" y="80.0634942">C</tspan>
                        <tspan x="46.6076344" y="106.950473">O</tspan>
                    </text>
                </g>
                <rect id="Rectangle" fill="#FFFFFF" x="51.4540126" y="14.2302527" width="57.2741645" height="11.4165477"></rect>
                <ellipse id="Oval" stroke-opacity="0.25" stroke="#FFFFFF" stroke-width="8" cx="80.0910949" cy="79.3045744" rx="83.4201747" ry="83.1547306"></ellipse>
                <rect id="Rectangle" fill="#FFFFFF" x="88.1094779" y="28.3106615" width="39.3282596" height="39.1968137"></rect>
                <rect id="Rectangle" fill="#FFFFFF" opacity="0.7" x="88.1094779" y="73.215749" width="46.2011593" height="35.3912978"></rect>
                <rect id="Rectangle-2" fill="#A8A9AD" x="49.9267016" y="113.554217" width="59.9469588" height="29.683024"></rect>
                <path d="M54.1041241,139.193391 C54.1041241,139.171509 54.4056626,138.183433 54.7742095,136.997668 C55.5047288,134.647292 55.6441927,134.297875 56.1152414,133.637817 C57.1051199,132.250747 58.6261408,131.379294 60.4799862,131.137089 C60.8839338,131.084312 61.8131633,131.074662 66.4902846,131.074662 L72.0227593,131.074662 L71.9989783,131.168318 C71.985898,131.21983 71.809267,131.83328 71.6064639,132.53154 L71.2377305,133.801104 L68.0898932,133.822294 C64.9625428,133.843342 64.940247,133.844088 64.664133,133.937205 C64.351649,134.042586 63.9559621,134.313592 63.7821384,134.541282 C63.5592665,134.833217 63.4638515,135.104926 62.9603775,136.881361 C62.6813706,137.865793 62.4156006,138.797676 62.3697767,138.952209 L62.2864628,139.233178 L58.195293,139.233178 C55.6217334,139.233178 54.1041241,139.218419 54.1041241,139.193391 Z" id="path6794" fill="#000000" fill-rule="nonzero"></path>
                <path d="M98.1067207,133.698038 C98.1559393,133.551787 100.636771,125.088962 100.675271,124.935958 L100.704079,124.821489 L98.882788,124.821489 C97.8265356,124.821489 97.0614972,124.805698 97.0614972,124.783893 C97.0614972,124.763213 97.1289553,124.553141 97.2114023,124.317062 C97.4527392,123.62604 97.7612263,123.246462 98.289706,122.990258 C98.8224029,122.732009 98.6700822,122.740235 102.920139,122.740235 C106.593923,122.740235 106.797167,122.744075 106.776906,122.813078 C106.765144,122.853141 106.668976,123.19499 106.563188,123.572736 C106.457406,123.950485 106.333411,124.385987 106.287641,124.54052 L106.204423,124.821489 L104.580511,124.821489 L102.956598,124.821489 L102.89543,125.029455 C102.861785,125.143836 102.273238,127.166816 101.587542,129.524964 L100.340819,133.812507 L99.2045098,133.812507 L98.0681933,133.812507 L98.1067207,133.698038 Z M86.928918,133.750552 C86.2704484,133.607791 85.8833928,133.227221 85.7788775,132.619775 C85.7360927,132.371107 85.7384903,132.272478 85.7940273,131.996584 C85.9263046,131.33946 87.6659889,125.436055 87.8139559,125.142208 C88.4264217,123.925903 89.4061961,123.184857 90.8594425,122.838766 C91.1112208,122.778806 91.5010307,122.766771 93.6681175,122.752059 C95.7267767,122.738081 96.1843676,122.744917 96.1840416,122.789635 C96.1829513,122.940089 95.7148407,124.352973 95.6216973,124.48693 C95.5630429,124.571285 95.435439,124.685751 95.3381313,124.741302 L95.1612039,124.842301 L93.2609117,124.866041 C91.64792,124.886194 91.3227325,124.90049 91.110031,124.960599 C90.7551591,125.060883 90.3811214,125.251152 90.1664806,125.44057 C89.8001384,125.763864 89.7733735,125.836538 88.8994353,128.88095 C88.4529294,130.436376 88.0912712,131.712651 88.0957509,131.717117 C88.1002285,131.721579 88.7802753,131.731269 89.6069626,131.738648 L91.110031,131.752065 L91.3416421,131.643793 C91.9101302,131.378042 91.9712911,131.264951 92.4930608,129.514716 C92.5133105,129.446792 92.4483346,129.441873 91.5304917,129.441873 C90.8816389,129.441873 90.546208,129.427231 90.546208,129.398905 C90.546208,129.375273 90.6054424,129.202848 90.6778418,129.015742 C90.8364173,128.605915 91.0756658,128.330103 91.4179867,128.162491 L91.6529713,128.047432 L93.3757646,128.035288 C94.3233004,128.02861 95.0985568,128.035816 95.0985568,128.051408 C95.0985568,128.066953 94.8340751,128.980887 94.5108183,130.08237 C93.8519899,132.327303 93.8011771,132.44787 93.3058348,132.941494 C92.8784608,133.367384 92.3658093,133.630355 91.7223857,133.753738 C91.2943946,133.83581 87.3099494,133.833162 86.928918,133.750542 L86.928918,133.750552 Z M79.53165,131.729158 C80.5405552,131.653057 81.0733739,131.460956 81.5696107,130.994395 C82.1377928,130.460192 82.5275741,129.645739 82.9040665,128.206021 C83.3896799,126.349023 83.2744809,125.399618 82.5192731,125.034752 C82.1178268,124.8408 81.8636848,124.817196 80.318924,124.830393 L78.9248685,124.842301 L77.9279247,128.27637 C77.379606,130.16511 76.9309682,131.724489 76.9309534,131.741659 C76.9309195,131.788319 78.8709659,131.778991 79.53165,131.729158 Z M74.1107107,133.76277 C74.1211267,133.732889 74.7988902,131.395131 75.6168626,128.567746 C76.4348351,125.740364 77.1508349,123.272516 77.2079734,123.083642 L77.311862,122.740235 L79.8256553,122.740235 C81.4021085,122.740235 82.4796088,122.757467 82.7153323,122.786259 C85.1506375,123.083702 85.8943719,124.77658 85.0541036,128.109751 C84.6654782,129.651347 84.2077921,130.780379 83.6674886,131.530276 C83.4547236,131.825582 82.9712685,132.333887 82.6735669,132.575289 C82.2253747,132.938726 81.4076087,133.390951 80.8973759,133.557525 C80.2040002,133.783889 80.2176595,133.783026 77.0462043,133.800605 C74.6288116,133.814002 74.0952223,133.807104 74.1107107,133.762653 L74.1107107,133.76277 Z" id="path6762" fill="#000000" fill-rule="nonzero"></path>
                <path d="M53.3631514,129.697032 C53.3631213,129.668414 53.5365422,129.040917 53.7485314,128.302592 L54.1339665,126.960183 L63.7046422,126.960183 L73.2753175,126.960183 L72.8892697,128.288473 C72.6769439,129.019033 72.49176,129.64653 72.4777525,129.682913 C72.4545801,129.743096 71.5913459,129.749063 62.9077451,129.749063 C55.2999867,129.749063 53.3631955,129.738504 53.3631514,129.697032 Z" id="path6760" fill="#000000" fill-rule="nonzero"></path>
                <path d="M54.5563209,125.438968 C54.5812437,125.339854 55.0031705,123.885823 55.250844,123.045526 L55.333658,122.764557 L58.3493874,122.763818 C61.6772713,122.762974 61.7095618,122.760854 62.189529,122.506386 C62.509373,122.336809 62.8522518,121.996289 62.990837,121.710584 C63.0483597,121.591999 63.359654,120.568885 63.6826027,119.436996 C64.0055504,118.305106 64.2756847,117.373131 64.2828986,117.365941 C64.2901177,117.358751 66.1377448,117.357643 68.3887478,117.363477 L72.4814798,117.374089 L71.7823583,119.601031 C71.3801731,120.882128 71.0178671,121.960567 70.9293283,122.140161 C70.6603139,122.685833 70.2512653,123.252703 69.8054357,123.697689 C68.7363752,124.764726 67.3369519,125.37185 65.6251124,125.51128 C65.3330559,125.535067 62.9132275,125.552376 59.8257369,125.552759 L54.5275371,125.553392 L54.5563209,125.438923 L54.5563209,125.438968 Z" id="path6756" fill="#000000" fill-rule="nonzero"></path>
                <rect id="Rectangle-9" fill="#FFFFFF" x="29.3080023" y="28.3106615" width="16.4185938" height="80.2963853"></rect>
                <g id="Group-4" transform="translate(33.508108, 36.302245)" fill="#000000">
                    <rect id="Rectangle-3" x="0" y="0" width="8.01838303" height="2.36601657"></rect>
                    <rect id="Rectangle-3" x="0" y="1.90275795" width="8.01838303" height="2.36601657"></rect>
                    <rect id="Rectangle-3" x="0" y="6.84992861" width="8.01838303" height="2.36601657"></rect>
                    <rect id="Rectangle-3" x="0" y="8.37213496" width="8.01838303" height="2.46666667"></rect>
                    <rect id="Rectangle-3" x="0" y="12.1776509" width="8.01838303" height="2.46666667"></rect>
                    <rect id="Rectangle-3" x="0" y="16.3637183" width="8.01838303" height="2.46666667"></rect>
                    <rect id="Rectangle-3" x="0" y="24.3553017" width="8.01838303" height="2.46666667"></rect>
                    <rect id="Rectangle-3" x="0" y="28.1608176" width="8.01838303" height="2.46666667"></rect>
                    <rect id="Rectangle-3" x="0" y="31.9663335" width="8.01838303" height="2.46666667"></rect>
                    <rect id="Rectangle-3" x="0" y="36.152401" width="8.01838303" height="2.46666667"></rect>
                    <rect id="Rectangle-3" x="0" y="40.3384685" width="8.01838303" height="2.46666667"></rect>
                    <rect id="Rectangle-3" x="0" y="44.1439844" width="8.01838303" height="2.46666667"></rect>
                    <rect id="Rectangle-3" x="0" y="46.8078455" width="8.01838303" height="2.46666667"></rect>
                    <rect id="Rectangle-3" x="0" y="52.1355677" width="8.01838303" height="2.46666667"></rect>
                    <rect id="Rectangle-3" x="0" y="60.1271511" width="8.01838303" height="2.46666667"></rect>
                    <rect id="Rectangle-3" x="0" y="60.8882543" width="8.01838303" height="2.46666667"></rect>
                    <rect id="Rectangle-3" x="0" y="33.1079883" width="8.01838303" height="2.36601657"></rect>
                    <rect id="Rectangle-3" x="0" y="37.2940557" width="8.01838303" height="2.36601657"></rect>
                    <rect id="Rectangle-3" x="0" y="49.4717066" width="8.01838303" height="2.36601657"></rect>
                    <rect id="Rectangle-3" x="0" y="53.2772225" width="8.01838303" height="2.36601657"></rect>
                    <rect id="Rectangle-3" x="0" y="55.560532" width="8.01838303" height="2.36601657"></rect>
                    <rect id="Rectangle-3" x="0" y="58.2243932" width="8.01838303" height="2.36601657"></rect>
                    <rect id="Rectangle-3" x="0" y="63.1715638" width="8.01838303" height="2.36601657"></rect>
                    <rect id="Rectangle-3" x="0" y="47.9495002" width="8.01838303" height="2.36601657"></rect>
                    <rect id="Rectangle-3" x="0" y="41.0995716" width="8.01838303" height="2.66386112"></rect>
                    <rect id="Rectangle-3" x="0" y="44.9050875" width="8.01838303" height="2.36601657"></rect>
                    <rect id="Rectangle-3" x="0" y="20.5497858" width="8.01838303" height="2.46666667"></rect>
                    <rect id="Rectangle-3" x="0" y="21.310889" width="8.01838303" height="2.36601657"></rect>
                    <rect id="Rectangle-3" x="0" y="22.4525438" width="8.01838303" height="2.36601657"></rect>
                    <rect id="Rectangle-3" x="0" y="25.1164049" width="8.01838303" height="2.66386112"></rect>
                    <rect id="Rectangle-3" x="0" y="17.5053731" width="8.01838303" height="2.36601657"></rect>
                    <rect id="Rectangle-3" x="0" y="29.3024724" width="8.01838303" height="2.36601657"></rect>
                    <rect id="Rectangle-3" x="0" y="3.80551589" width="8.01838303" height="2.36601657"></rect>
                    <rect id="Rectangle-3" x="0" y="9.13323814" width="8.01838303" height="2.66386112"></rect>
                    <rect id="Rectangle-3" x="0" y="12.938754" width="8.01838303" height="2.66386112"></rect>
                </g>
                <path d="M-9.37070261,75.5417963 L-9.37070261,74.9520156 C-8.8132462,74.8978809 -8.42446192,74.8074203 -8.20433811,74.6806311 C-7.9842143,74.5538418 -7.8198386,74.2539685 -7.71120607,73.7810019 L-7.10229519,73.7810019 L-7.10229519,79.8754018 L-7.9256113,79.8754018 L-7.9256113,75.5417963 L-9.37070261,75.5417963 Z M-1.2982445,74.2618013 C-1.02809254,74.6165262 -0.893018595,74.9819302 -0.893018595,75.358024 L-1.65630124,75.358024 C-1.70204126,75.1158424 -1.77493831,74.9263737 -1.87499459,74.7896123 C-2.06081339,74.5331846 -2.34239612,74.4049727 -2.71975122,74.4049727 C-3.1514226,74.4049727 -3.49446755,74.6037012 -3.74889637,75.001164 C-4.00332519,75.3986269 -4.14483123,75.9677452 -4.17341874,76.7085362 C-3.99617619,76.4492594 -3.77319697,76.255517 -3.5044744,76.1273031 C-3.25862183,76.0133353 -2.98418587,75.9563522 -2.68115828,75.9563522 C-2.16658314,75.9563522 -1.71776599,76.1201785 -1.33469339,76.4478361 C-0.951620778,76.7754936 -0.760087348,77.2641234 -0.760087348,77.9137401 C-0.760087348,78.4693334 -0.941615301,78.9615246 -1.30467665,79.3903286 C-1.667738,79.8191326 -2.18516414,80.0335314 -2.85697058,80.0335314 C-3.43157949,80.0335314 -3.92756531,79.8162835 -4.34494293,79.3817811 C-4.76232055,78.9472787 -4.97100622,78.2157586 -4.97100622,77.1871988 C-4.97100622,76.4264634 -4.87809822,75.7811302 -4.69227941,75.2511797 C-4.33493556,74.2368659 -3.6817208,73.7297166 -2.73261554,73.7297166 C-2.04651535,73.7297166 -1.56839645,73.9070764 -1.2982445,74.2618013 Z M-1.87713864,78.9415825 C-1.67559671,78.6694843 -1.57482725,78.3482422 -1.57482725,77.9778467 C-1.57482725,77.6644352 -1.66487655,77.3659863 -1.84497785,77.0824913 C-2.02507915,76.7989963 -2.35240121,76.657251 -2.82695384,76.657251 C-3.15856894,76.657251 -3.44944247,76.7669434 -3.69958316,76.9863315 C-3.94972386,77.2057196 -4.07479233,77.5362213 -4.07479233,77.9778467 C-4.07479233,78.3653374 -3.96115869,78.6908532 -3.733888,78.9544038 C-3.50661731,79.2179544 -3.19144476,79.3497278 -2.7883609,79.3497278 C-2.38241829,79.3497278 -2.07868057,79.2136807 -1.87713864,78.9415825 Z M0.256294379,73.5972297 L1.47840424,73.5972297 L3.28798445,78.9052554 L5.08470034,73.5972297 L6.29394588,73.5972297 L6.29394588,79.8754018 L5.48349408,79.8754018 L5.48349408,76.1700409 C5.48349408,76.041827 5.48635279,75.8295651 5.49207029,75.5332487 C5.4977878,75.2369323 5.5006465,74.9192517 5.5006465,74.5801974 L3.70393061,79.8754018 L2.85917397,79.8754018 L1.04959376,74.5801974 L1.04959376,74.7725172 C1.04959376,74.9263738 1.05316714,75.1607166 1.06031402,75.4755528 C1.0674609,75.790389 1.07103428,76.0218827 1.07103428,76.1700409 L1.07103428,79.8754018 L0.256294379,79.8754018 L0.256294379,73.5972297 Z M12.1301574,74.0545234 C12.570405,74.4733552 12.8148245,74.9491638 12.8634233,75.4819635 L12.031531,75.4819635 C11.9371922,75.0773776 11.7492321,74.7568479 11.4676452,74.5203646 C11.1860582,74.2838813 10.7908419,74.1656415 10.2819842,74.1656415 C9.66163529,74.1656415 9.16064672,74.3828894 8.77900349,74.8173918 C8.39736026,75.2518942 8.20654151,75.9178838 8.20654151,76.8153805 C8.20654151,77.5504731 8.37877866,78.1466585 8.72325813,78.6039544 C9.0677376,79.0612504 9.58159035,79.289895 10.2648318,79.289895 C10.893757,79.289895 11.3725905,79.0491415 11.7013469,78.5676274 C11.8757307,78.3140489 12.0058019,77.980698 12.0915644,77.5675645 L12.9234567,77.5675645 C12.8491292,78.228578 12.6032803,78.7827384 12.1859027,79.2300621 C11.6856213,79.7685602 11.0109663,80.0378052 10.1619173,80.0378052 C9.43007707,80.0378052 8.81545487,79.8169958 8.31803223,79.3753704 C7.6633783,78.7912852 7.33605624,77.8895282 7.33605624,76.6700723 C7.33605624,75.7440835 7.58190512,74.9847842 8.07361026,74.3921514 C8.60533791,73.7482331 9.33859649,73.4262788 10.273408,73.4262788 C11.0709995,73.4262788 11.6899097,73.6356915 12.1301574,74.0545234 Z M13.6825522,77.0418905 L15.8351808,77.0418905 L15.8351808,77.8325385 L13.6825522,77.8325385 L13.6825522,77.0418905 Z M20.3678084,74.7340532 C20.6422485,75.2383609 20.7794665,75.9292806 20.7794665,76.806833 C20.7794665,77.6387982 20.6551127,78.3268688 20.4064014,78.8710652 C20.0461988,79.6517449 19.4573049,80.042079 18.6397022,80.042079 C17.9021445,80.042079 17.3532726,79.7229738 16.99307,79.0847539 C16.6929011,78.5519542 16.542819,77.8368167 16.542819,76.93932 C16.542819,76.2441161 16.6328683,75.6472185 16.8129696,75.1486092 C17.1503022,74.2197713 17.7606363,73.7553593 18.6439903,73.7553593 C19.438723,73.7553593 20.0133233,74.0815873 20.3678084,74.7340532 Z M19.5916614,78.8112324 C19.8289378,78.4579321 19.9475741,77.7997777 19.9475741,76.8367494 C19.9475741,76.1415456 19.8618129,75.569578 19.6902879,75.1208297 C19.5187628,74.6720813 19.1857233,74.4477105 18.6911594,74.4477105 C18.2366181,74.4477105 17.9042933,74.6606847 17.6941751,75.0866395 C17.4840569,75.5125943 17.3789994,76.1401203 17.3789994,76.9692364 C17.3789994,77.5932103 17.446179,78.0946613 17.5805403,78.4736044 C17.7863704,79.0519912 18.1379914,79.3411802 18.6354141,79.3411802 C19.0356392,79.3411802 19.3543851,79.1645327 19.5916614,78.8112324 Z M25.2777893,74.7340532 C25.5522293,75.2383609 25.6894473,75.9292806 25.6894473,76.806833 C25.6894473,77.6387982 25.5650935,78.3268688 25.3163822,78.8710652 C24.9561796,79.6517449 24.3672858,80.042079 23.549683,80.042079 C22.8121253,80.042079 22.2632534,79.7229738 21.9030508,79.0847539 C21.602882,78.5519542 21.4527998,77.8368167 21.4527998,76.93932 C21.4527998,76.2441161 21.5428491,75.6472185 21.7229504,75.1486092 C22.060283,74.2197713 22.6706171,73.7553593 23.5539711,73.7553593 C24.3487039,73.7553593 24.9233042,74.0815873 25.2777893,74.7340532 Z M24.5016423,78.8112324 C24.7389186,78.4579321 24.857555,77.7997777 24.857555,76.8367494 C24.857555,76.1415456 24.7717938,75.569578 24.6002687,75.1208297 C24.4287437,74.6720813 24.0957042,74.4477105 23.6011403,74.4477105 C23.1465989,74.4477105 22.8142741,74.6606847 22.6041559,75.0866395 C22.3940378,75.5125943 22.2889802,76.1401203 22.2889802,76.9692364 C22.2889802,77.5932103 22.3561599,78.0946613 22.4905212,78.4736044 C22.6963512,79.0519912 23.0479723,79.3411802 23.5453949,79.3411802 C23.94562,79.3411802 24.264366,79.1645327 24.5016423,78.8112324 Z M30.1877701,74.7340532 C30.4622102,75.2383609 30.5994282,75.9292806 30.5994282,76.806833 C30.5994282,77.6387982 30.4750744,78.3268688 30.2263631,78.8710652 C29.8661605,79.6517449 29.2772666,80.042079 28.4596639,80.042079 C27.7221062,80.042079 27.1732343,79.7229738 26.8130317,79.0847539 C26.5128628,78.5519542 26.3627807,77.8368167 26.3627807,76.93932 C26.3627807,76.2441161 26.45283,75.6472185 26.6329313,75.1486092 C26.9702639,74.2197713 27.580598,73.7553593 28.463952,73.7553593 C29.2586847,73.7553593 29.833285,74.0815873 30.1877701,74.7340532 Z M29.4116231,78.8112324 C29.6488995,78.4579321 29.7675358,77.7997777 29.7675358,76.8367494 C29.7675358,76.1415456 29.6817746,75.569578 29.5102496,75.1208297 C29.3387245,74.6720813 29.005685,74.4477105 28.5111211,74.4477105 C28.0565798,74.4477105 27.724255,74.6606847 27.5141368,75.0866395 C27.3040186,75.5125943 27.1989611,76.1401203 27.1989611,76.9692364 C27.1989611,77.5932103 27.2661407,78.0946613 27.400502,78.4736044 C27.6063321,79.0519912 27.9579531,79.3411802 28.4553758,79.3411802 C28.8556009,79.3411802 29.1743468,79.1645327 29.4116231,78.8112324 Z M35.097751,74.7340532 C35.372191,75.2383609 35.509409,75.9292806 35.509409,76.806833 C35.509409,77.6387982 35.3850552,78.3268688 35.1363439,78.8710652 C34.7761413,79.6517449 34.1872475,80.042079 33.3696447,80.042079 C32.632087,80.042079 32.0832151,79.7229738 31.7230125,79.0847539 C31.4228437,78.5519542 31.2727615,77.8368167 31.2727615,76.93932 C31.2727615,76.2441161 31.3628108,75.6472185 31.5429121,75.1486092 C31.8802447,74.2197713 32.4905788,73.7553593 33.3739328,73.7553593 C34.1686656,73.7553593 34.7432659,74.0815873 35.097751,74.7340532 Z M34.321604,78.8112324 C34.5588803,78.4579321 34.6775167,77.7997777 34.6775167,76.8367494 C34.6775167,76.1415456 34.5917555,75.569578 34.4202304,75.1208297 C34.2487054,74.6720813 33.9156659,74.4477105 33.421102,74.4477105 C32.9665606,74.4477105 32.6342358,74.6606847 32.4241176,75.0866395 C32.2139995,75.5125943 32.1089419,76.1401203 32.1089419,76.9692364 C32.1089419,77.5932103 32.1761216,78.0946613 32.3104829,78.4736044 C32.5163129,79.0519912 32.867934,79.3411802 33.3653566,79.3411802 C33.7655818,79.3411802 34.0843277,79.1645327 34.321604,78.8112324 Z M40.0077318,74.7340532 C40.2821719,75.2383609 40.4193899,75.9292806 40.4193899,76.806833 C40.4193899,77.6387982 40.2950361,78.3268688 40.0463248,78.8710652 C39.6861222,79.6517449 39.0972283,80.042079 38.2796256,80.042079 C37.5420679,80.042079 36.993196,79.7229738 36.6329934,79.0847539 C36.3328245,78.5519542 36.1827424,77.8368167 36.1827424,76.93932 C36.1827424,76.2441161 36.2727917,75.6472185 36.452893,75.1486092 C36.7902256,74.2197713 37.4005597,73.7553593 38.2839137,73.7553593 C39.0786464,73.7553593 39.6532467,74.0815873 40.0077318,74.7340532 Z M39.2315849,78.8112324 C39.4688612,78.4579321 39.5874975,77.7997777 39.5874975,76.8367494 C39.5874975,76.1415456 39.5017363,75.569578 39.3302113,75.1208297 C39.1586862,74.6720813 38.8256467,74.4477105 38.3310829,74.4477105 C37.8765415,74.4477105 37.5442167,74.6606847 37.3340985,75.0866395 C37.1239803,75.5125943 37.0189228,76.1401203 37.0189228,76.9692364 C37.0189228,77.5932103 37.0861024,78.0946613 37.2204637,78.4736044 C37.4262938,79.0519912 37.7779148,79.3411802 38.2753375,79.3411802 C38.6755626,79.3411802 38.9943085,79.1645327 39.2315849,78.8112324 Z M44.9177127,74.7340532 C45.1921527,75.2383609 45.3293707,75.9292806 45.3293707,76.806833 C45.3293707,77.6387982 45.2050169,78.3268688 44.9563056,78.8710652 C44.596103,79.6517449 44.0072092,80.042079 43.1896064,80.042079 C42.4520487,80.042079 41.9031768,79.7229738 41.5429742,79.0847539 C41.2428054,78.5519542 41.0927232,77.8368167 41.0927232,76.93932 C41.0927232,76.2441161 41.1827725,75.6472185 41.3628738,75.1486092 C41.7002064,74.2197713 42.3105406,73.7553593 43.1938945,73.7553593 C43.9886273,73.7553593 44.5632276,74.0815873 44.9177127,74.7340532 Z M44.1415657,78.8112324 C44.378842,78.4579321 44.4974784,77.7997777 44.4974784,76.8367494 C44.4974784,76.1415456 44.4117172,75.569578 44.2401921,75.1208297 C44.0686671,74.6720813 43.7356276,74.4477105 43.2410637,74.4477105 C42.7865223,74.4477105 42.4541975,74.6606847 42.2440793,75.0866395 C42.0339612,75.5125943 41.9289036,76.1401203 41.9289036,76.9692364 C41.9289036,77.5932103 41.9960833,78.0946613 42.1304446,78.4736044 C42.3362746,79.0519912 42.6878957,79.3411802 43.1853183,79.3411802 C43.5855435,79.3411802 43.9042894,79.1645327 44.1415657,78.8112324 Z M49.8276935,74.7340532 C50.1021336,75.2383609 50.2393516,75.9292806 50.2393516,76.806833 C50.2393516,77.6387982 50.1149978,78.3268688 49.8662865,78.8710652 C49.5060839,79.6517449 48.91719,80.042079 48.0995873,80.042079 C47.3620296,80.042079 46.8131577,79.7229738 46.4529551,79.0847539 C46.1527862,78.5519542 46.0027041,77.8368167 46.0027041,76.93932 C46.0027041,76.2441161 46.0927534,75.6472185 46.2728547,75.1486092 C46.6101873,74.2197713 47.2205214,73.7553593 48.1038754,73.7553593 C48.8986081,73.7553593 49.4732084,74.0815873 49.8276935,74.7340532 Z M49.0515466,78.8112324 C49.2888229,78.4579321 49.4074592,77.7997777 49.4074592,76.8367494 C49.4074592,76.1415456 49.321698,75.569578 49.150173,75.1208297 C48.9786479,74.6720813 48.6456084,74.4477105 48.1510446,74.4477105 C47.6965032,74.4477105 47.3641784,74.6606847 47.1540602,75.0866395 C46.943942,75.5125943 46.8388845,76.1401203 46.8388845,76.9692364 C46.8388845,77.5932103 46.9060641,78.0946613 47.0404254,78.4736044 C47.2462555,79.0519912 47.5978766,79.3411802 48.0952992,79.3411802 C48.4955243,79.3411802 48.8142702,79.1645327 49.0515466,78.8112324 Z M54.7376744,74.7340532 C55.0121144,75.2383609 55.1493324,75.9292806 55.1493324,76.806833 C55.1493324,77.6387982 55.0249786,78.3268688 54.7762673,78.8710652 C54.4160647,79.6517449 53.8271709,80.042079 53.0095681,80.042079 C52.2720104,80.042079 51.7231385,79.7229738 51.3629359,79.0847539 C51.0627671,78.5519542 50.9126849,77.8368167 50.9126849,76.93932 C50.9126849,76.2441161 51.0027342,75.6472185 51.1828355,75.1486092 C51.5201681,74.2197713 52.1305023,73.7553593 53.0138563,73.7553593 C53.808589,73.7553593 54.3831893,74.0815873 54.7376744,74.7340532 Z M53.9615274,78.8112324 C54.1988037,78.4579321 54.3174401,77.7997777 54.3174401,76.8367494 C54.3174401,76.1415456 54.2316789,75.569578 54.0601538,75.1208297 C53.8886288,74.6720813 53.5555893,74.4477105 53.0610254,74.4477105 C52.606484,74.4477105 52.2741592,74.6606847 52.064041,75.0866395 C51.8539229,75.5125943 51.7488653,76.1401203 51.7488653,76.9692364 C51.7488653,77.5932103 51.816045,78.0946613 51.9504063,78.4736044 C52.1562363,79.0519912 52.5078574,79.3411802 53.00528,79.3411802 C53.4055052,79.3411802 53.7242511,79.1645327 53.9615274,78.8112324 Z" id="16MC-00000000" fill="#000000" transform="translate(22.889315, 76.734179) rotate(-90.000000) translate(-22.889315, -76.734179) "></path>
            </g>
        </g>
    </g>
</svg>