<?xml version="1.0" encoding="utf-8"?>
<!-- Generator: Adobe Illustrator 19.2.1, SVG Export Plug-In . SVG Version: 6.00 Build 0)  -->
<svg width="176px" height="176px" version="1.1" id="Capa_1" xmlns="http://www.w3.org/2000/svg" xmlns:xlink="http://www.w3.org/1999/xlink" x="0px" y="0px"
	 viewBox="0 0 176 176" style="enable-background:new 0 0 176 176;" xml:space="preserve">
<style type="text/css">
	.st0{fill:#006F99;stroke:#FFFFFF;stroke-width:8;stroke-opacity:0.25;}
	.st1{font-family:'SourceSansPro-Regular';}
	.st2{font-size:98.4363px;}
	.st3{font-size:11px;}
	.st4{fill:#FFFFFF;}
	.st5{opacity:0.7;fill:#FFFFFF;enable-background:new    ;}
	.st6{fill:#A8A9AD;}
</style>
<title>etiqueta_ambiental_0</title>
<desc>Created with Sketch.</desc>
<g id="Opcions">
	<g id="_x30_2-Cercador_x5F_etiquetes_x5F_ok_x5F_A" transform="translate(-632.000000, -1026.000000)">
		<g id="etiqueta_ambiental_0" transform="translate(640.000000, 1034.000000)">
			<g id="Group-36">
				<g id="Group-6">
					<ellipse id="Oval" class="st0" cx="79.7" cy="79.5" rx="83.7" ry="83.5"/>
					<text transform="matrix(1 0 0 1 23.4372 90.4299)" class="st1 st2">0</text>
					<text transform="matrix(1 0 0 1 26.4554 104.4299)" class="st1 st3">Emisiones</text>
					<rect id="Rectangle" x="87.7" y="28.3" class="st4" width="39.5" height="39.4"/>
					<rect id="Rectangle_1_" x="87.7" y="73.4" class="st5" width="46.4" height="35.6"/>
					<rect id="Rectangle-2" x="49.4" y="113.9" class="st6" width="60.2" height="29.8"/>
					<path id="path6794" d="M53.6,139.7c0,0,0.3-1,0.7-2.2c0.7-2.4,0.9-2.7,1.3-3.4c1-1.4,2.5-2.3,4.4-2.5c0.4-0.1,1.3-0.1,6-0.1
						h5.6l0,0.1c0,0.1-0.2,0.7-0.4,1.4l-0.4,1.3l-3.2,0c-3.1,0-3.2,0-3.4,0.1c-0.3,0.1-0.7,0.4-0.9,0.6c-0.2,0.3-0.3,0.6-0.8,2.4
						c-0.3,1-0.5,1.9-0.6,2.1l-0.1,0.3h-4.1C55.1,139.7,53.6,139.7,53.6,139.7z"/>
					<path id="path6762" d="M97.8,134.2c0-0.1,2.5-8.6,2.6-8.8l0-0.1h-1.8c-1.1,0-1.8,0-1.8,0c0,0,0.1-0.2,0.2-0.5
						c0.2-0.7,0.6-1.1,1.1-1.3c0.5-0.3,0.4-0.3,4.6-0.3c3.7,0,3.9,0,3.9,0.1c0,0-0.1,0.4-0.2,0.8c-0.1,0.4-0.2,0.8-0.3,1l-0.1,0.3
						h-1.6h-1.6l-0.1,0.2c0,0.1-0.6,2.1-1.3,4.5l-1.3,4.3h-1.1h-1.1L97.8,134.2z M86.6,134.2c-0.7-0.1-1-0.5-1.2-1.1
						c0-0.2,0-0.3,0-0.6c0.1-0.7,1.9-6.6,2-6.9c0.6-1.2,1.6-2,3.1-2.3c0.3-0.1,0.6-0.1,2.8-0.1c2.1,0,2.5,0,2.5,0
						c0,0.2-0.5,1.6-0.6,1.7c-0.1,0.1-0.2,0.2-0.3,0.3l-0.2,0.1l-1.9,0c-1.6,0-1.9,0-2.2,0.1c-0.4,0.1-0.7,0.3-0.9,0.5
						c-0.4,0.3-0.4,0.4-1.3,3.5c-0.4,1.6-0.8,2.8-0.8,2.8s0.7,0,1.5,0l1.5,0l0.2-0.1c0.6-0.3,0.6-0.4,1.2-2.1c0-0.1,0-0.1-1-0.1
						c-0.7,0-1,0-1,0c0,0,0.1-0.2,0.1-0.4c0.2-0.4,0.4-0.7,0.7-0.9l0.2-0.1l1.7,0c1,0,1.7,0,1.7,0c0,0-0.3,0.9-0.6,2
						c-0.7,2.3-0.7,2.4-1.2,2.9c-0.4,0.4-0.9,0.7-1.6,0.8C90.9,134.3,86.9,134.3,86.6,134.2L86.6,134.2z M79.1,132.2
						c1-0.1,1.5-0.3,2-0.7c0.6-0.5,1-1.4,1.3-2.8c0.5-1.9,0.4-2.8-0.4-3.2c-0.4-0.2-0.7-0.2-2.2-0.2l-1.4,0l-1,3.4
						c-0.6,1.9-1,3.5-1,3.5C76.5,132.2,78.5,132.2,79.1,132.2z M73.7,134.2c0,0,0.7-2.4,1.5-5.2s1.5-5.3,1.6-5.5l0.1-0.3h2.5
						c1.6,0,2.7,0,2.9,0c2.4,0.3,3.2,2,2.3,5.3c-0.4,1.5-0.8,2.7-1.4,3.4c-0.2,0.3-0.7,0.8-1,1c-0.4,0.4-1.3,0.8-1.8,1
						c-0.7,0.2-0.7,0.2-3.9,0.2C74.2,134.3,73.7,134.3,73.7,134.2L73.7,134.2z"/>
					<path id="path6760" d="M52.9,130.1c0,0,0.2-0.7,0.4-1.4l0.4-1.3h9.6h9.6l-0.4,1.3c-0.2,0.7-0.4,1.4-0.4,1.4
						c0,0.1-0.9,0.1-9.6,0.1C54.8,130.2,52.9,130.2,52.9,130.1z"/>
					<path id="path6756" d="M54.1,125.9c0-0.1,0.4-1.6,0.7-2.4l0.1-0.3l3,0c3.3,0,3.4,0,3.9-0.3c0.3-0.2,0.7-0.5,0.8-0.8
						c0.1-0.1,0.4-1.1,0.7-2.3c0.3-1.1,0.6-2.1,0.6-2.1c0,0,1.9,0,4.1,0l4.1,0l-0.7,2.2c-0.4,1.3-0.8,2.4-0.9,2.6
						c-0.3,0.5-0.7,1.1-1.1,1.6c-1.1,1.1-2.5,1.7-4.2,1.8c-0.3,0-2.7,0-5.8,0l-5.3,0L54.1,125.9L54.1,125.9z"/>
				</g>
			</g>
			<path id="_x31_6MB-00000000" d="M140.3,109.3h-0.6c-0.1-0.6-0.1-0.9-0.3-1.2c-0.1-0.2-0.4-0.4-0.9-0.5V107h6.1v0.8h-4.4V109.3z
				 M139,101.2c0.4-0.3,0.7-0.4,1.1-0.4v0.8c-0.2,0-0.4,0.1-0.6,0.2c-0.3,0.2-0.4,0.5-0.4,0.8c0,0.4,0.2,0.8,0.6,1
				c0.4,0.3,1,0.4,1.7,0.4c-0.3-0.2-0.5-0.4-0.6-0.7c-0.1-0.2-0.2-0.5-0.2-0.8c0-0.5,0.2-1,0.5-1.4c0.3-0.4,0.8-0.6,1.5-0.6
				c0.6,0,1.1,0.2,1.5,0.5c0.4,0.4,0.6,0.9,0.6,1.6c0,0.6-0.2,1.1-0.7,1.5c-0.4,0.4-1.2,0.6-2.2,0.6c-0.8,0-1.4-0.1-1.9-0.3
				c-1-0.4-1.5-1-1.5-2C138.4,101.9,138.6,101.5,139,101.2z M143.7,101.8c-0.3-0.2-0.6-0.3-1-0.3c-0.3,0-0.6,0.1-0.9,0.3
				s-0.4,0.5-0.4,1c0,0.3,0.1,0.6,0.3,0.9c0.2,0.3,0.6,0.4,1,0.4c0.4,0,0.7-0.1,1-0.3c0.3-0.2,0.4-0.5,0.4-0.9
				C144.1,102.3,144,102,143.7,101.8z M138.3,99.6v-1.2l5.3-1.8l-5.3-1.8v-1.2h6.3v0.8h-3.7c-0.1,0-0.3,0-0.6,0c-0.3,0-0.6,0-1,0
				l5.3,1.8V97l-5.3,1.8h0.2c0.2,0,0.4,0,0.7,0c0.3,0,0.5,0,0.7,0h3.7v0.8H138.3z M141,89.9c0-0.4-0.1-0.6-0.2-0.8
				c-0.2-0.3-0.4-0.5-0.9-0.5c-0.4,0-0.7,0.2-0.8,0.5c-0.1,0.2-0.1,0.5-0.1,0.8v1.5h2V89.9z M143.9,89.6c0-0.5-0.2-0.9-0.5-1.1
				c-0.2-0.1-0.4-0.2-0.7-0.2c-0.5,0-0.8,0.2-0.9,0.6c-0.1,0.2-0.1,0.5-0.1,0.9v1.7h2.2V89.6z M138.3,92.3v-2.7
				c0-0.7,0.2-1.3,0.7-1.6c0.3-0.2,0.6-0.3,0.9-0.3c0.4,0,0.7,0.1,1,0.3c0.1,0.1,0.3,0.3,0.4,0.5c0.1-0.3,0.3-0.6,0.4-0.7
				c0.3-0.3,0.7-0.4,1.1-0.4c0.4,0,0.8,0.1,1.1,0.4c0.5,0.4,0.7,1,0.7,1.8v2.7H138.3z M141.8,86.6v-2.2h0.8v2.2H141.8z M139.5,79.9
				c0.5-0.3,1.2-0.4,2.1-0.4c0.8,0,1.5,0.1,2.1,0.4c0.8,0.4,1.2,1,1.2,1.8c0,0.7-0.3,1.3-1,1.7c-0.5,0.3-1.3,0.5-2.2,0.5
				c-0.7,0-1.3-0.1-1.8-0.3c-0.9-0.3-1.4-1-1.4-1.8C138.5,80.9,138.8,80.3,139.5,79.9z M143.5,80.7c-0.4-0.2-1-0.4-2-0.4
				c-0.7,0-1.3,0.1-1.7,0.3s-0.7,0.5-0.7,1c0,0.5,0.2,0.8,0.6,1c0.4,0.2,1.1,0.3,1.9,0.3c0.6,0,1.1-0.1,1.5-0.2
				c0.6-0.2,0.9-0.6,0.9-1.1C144.1,81.3,143.9,81,143.5,80.7z M139.5,75c0.5-0.3,1.2-0.4,2.1-0.4c0.8,0,1.5,0.1,2.1,0.4
				c0.8,0.4,1.2,1,1.2,1.8c0,0.7-0.3,1.3-1,1.7c-0.5,0.3-1.3,0.5-2.2,0.5c-0.7,0-1.3-0.1-1.8-0.3c-0.9-0.3-1.4-1-1.4-1.8
				C138.5,75.9,138.8,75.4,139.5,75z M143.5,75.8c-0.4-0.2-1-0.4-2-0.4c-0.7,0-1.3,0.1-1.7,0.3s-0.7,0.5-0.7,1c0,0.5,0.2,0.8,0.6,1
				c0.4,0.2,1.1,0.3,1.9,0.3c0.6,0,1.1-0.1,1.5-0.2c0.6-0.2,0.9-0.6,0.9-1.1C144.1,76.3,143.9,76,143.5,75.8z M139.5,70.1
				c0.5-0.3,1.2-0.4,2.1-0.4c0.8,0,1.5,0.1,2.1,0.4c0.8,0.4,1.2,1,1.2,1.8c0,0.7-0.3,1.3-1,1.7c-0.5,0.3-1.3,0.5-2.2,0.5
				c-0.7,0-1.3-0.1-1.8-0.3c-0.9-0.3-1.4-1-1.4-1.8C138.5,71,138.8,70.4,139.5,70.1z M143.5,70.9c-0.4-0.2-1-0.4-2-0.4
				c-0.7,0-1.3,0.1-1.7,0.3c-0.5,0.2-0.7,0.5-0.7,1c0,0.5,0.2,0.8,0.6,1c0.4,0.2,1.1,0.3,1.9,0.3c0.6,0,1.1-0.1,1.5-0.2
				c0.6-0.2,0.9-0.6,0.9-1.1C144.1,71.4,143.9,71.1,143.5,70.9z M139.5,65.2c0.5-0.3,1.2-0.4,2.1-0.4c0.8,0,1.5,0.1,2.1,0.4
				c0.8,0.4,1.2,1,1.2,1.8c0,0.7-0.3,1.3-1,1.7c-0.5,0.3-1.3,0.5-2.2,0.5c-0.7,0-1.3-0.1-1.8-0.3c-0.9-0.3-1.4-1-1.4-1.8
				C138.5,66.1,138.8,65.5,139.5,65.2z M143.5,65.9c-0.4-0.2-1-0.4-2-0.4c-0.7,0-1.3,0.1-1.7,0.3c-0.5,0.2-0.7,0.5-0.7,1
				c0,0.5,0.2,0.8,0.6,1c0.4,0.2,1.1,0.3,1.9,0.3c0.6,0,1.1-0.1,1.5-0.2c0.6-0.2,0.9-0.6,0.9-1.1C144.1,66.5,143.9,66.2,143.5,65.9z
				 M139.5,60.2c0.5-0.3,1.2-0.4,2.1-0.4c0.8,0,1.5,0.1,2.1,0.4c0.8,0.4,1.2,1,1.2,1.8c0,0.7-0.3,1.3-1,1.7
				c-0.5,0.3-1.3,0.5-2.2,0.5c-0.7,0-1.3-0.1-1.8-0.3c-0.9-0.3-1.4-1-1.4-1.8C138.5,61.2,138.8,60.6,139.5,60.2z M143.5,61
				c-0.4-0.2-1-0.4-2-0.4c-0.7,0-1.3,0.1-1.7,0.3s-0.7,0.5-0.7,1c0,0.5,0.2,0.8,0.6,1c0.4,0.2,1.1,0.3,1.9,0.3
				c0.6,0,1.1-0.1,1.5-0.2c0.6-0.2,0.9-0.6,0.9-1.1C144.1,61.6,143.9,61.2,143.5,61z M139.5,55.3c0.5-0.3,1.2-0.4,2.1-0.4
				c0.8,0,1.5,0.1,2.1,0.4c0.8,0.4,1.2,1,1.2,1.8c0,0.7-0.3,1.3-1,1.7c-0.5,0.3-1.3,0.5-2.2,0.5c-0.7,0-1.3-0.1-1.8-0.3
				c-0.9-0.3-1.4-1-1.4-1.8C138.5,56.2,138.8,55.7,139.5,55.3z M143.5,56.1c-0.4-0.2-1-0.4-2-0.4c-0.7,0-1.3,0.1-1.7,0.3
				s-0.7,0.5-0.7,1c0,0.5,0.2,0.8,0.6,1c0.4,0.2,1.1,0.3,1.9,0.3c0.6,0,1.1-0.1,1.5-0.2c0.6-0.2,0.9-0.6,0.9-1.1
				C144.1,56.6,143.9,56.3,143.5,56.1z M139.5,50.4c0.5-0.3,1.2-0.4,2.1-0.4c0.8,0,1.5,0.1,2.1,0.4c0.8,0.4,1.2,1,1.2,1.8
				c0,0.7-0.3,1.3-1,1.7c-0.5,0.3-1.3,0.5-2.2,0.5c-0.7,0-1.3-0.1-1.8-0.3c-0.9-0.3-1.4-1-1.4-1.8C138.5,51.3,138.8,50.7,139.5,50.4
				z M143.5,51.2c-0.4-0.2-1-0.4-2-0.4c-0.7,0-1.3,0.1-1.7,0.3s-0.7,0.5-0.7,1c0,0.5,0.2,0.8,0.6,1c0.4,0.2,1.1,0.3,1.9,0.3
				c0.6,0,1.1-0.1,1.5-0.2c0.6-0.2,0.9-0.6,0.9-1.1C144.1,51.7,143.9,51.4,143.5,51.2z M139.5,45.4c0.5-0.3,1.2-0.4,2.1-0.4
				c0.8,0,1.5,0.1,2.1,0.4c0.8,0.4,1.2,1,1.2,1.8c0,0.7-0.3,1.3-1,1.7c-0.5,0.3-1.3,0.5-2.2,0.5c-0.7,0-1.3-0.1-1.8-0.3
				c-0.9-0.3-1.4-1-1.4-1.8C138.5,46.4,138.8,45.8,139.5,45.4z M143.5,46.2c-0.4-0.2-1-0.4-2-0.4c-0.7,0-1.3,0.1-1.7,0.3
				s-0.7,0.5-0.7,1c0,0.5,0.2,0.8,0.6,1c0.4,0.2,1.1,0.3,1.9,0.3c0.6,0,1.1-0.1,1.5-0.2c0.6-0.2,0.9-0.6,0.9-1.1
				C144.1,46.8,143.9,46.5,143.5,46.2z"/>
		</g>
	</g>
</g>
</svg>
