<?xml version="1.0" encoding="UTF-8"?>
<svg width="176px" height="176px" viewBox="0 0 176 176" version="1.1" xmlns="http://www.w3.org/2000/svg" xmlns:xlink="http://www.w3.org/1999/xlink">
    <!-- Generator: Sketch 51.3 (57544) - http://www.bohemiancoding.com/sketch -->
    <title>etiqueta_ambiental_B</title>
    <desc>Created with Sketch.</desc>
    <defs></defs>
    <g id="Opcions" stroke="none" stroke-width="1" fill="none" fill-rule="evenodd">
        <g id="04-Cercador_etiquetes_ok_C" transform="translate(-632.000000, -1026.000000)">
            <g id="etiqueta_ambiental_B" transform="translate(640.000000, 1034.000000)">
                <g id="Group-36">
                    <g id="Group-6">
                        <ellipse id="Oval" stroke-opacity="0.25" stroke="#FFFFFF" stroke-width="8" fill="#FFED00" cx="79.7146741" cy="79.8503929" rx="83.7146741" ry="83.8503929"></ellipse>
                        <rect id="Rectangle" fill="#FFFFFF" x="50.9714022" y="14.2041564" width="57.4865438" height="11.5168836"></rect>
                        <rect id="Rectangle" fill="#FFFFFF" x="87.7627902" y="28.4083129" width="39.4740934" height="39.5413003"></rect>
                        <rect id="Rectangle" fill="#FFFFFF" opacity="0.7" x="87.7627902" y="73.708055" width="46.3724787" height="35.7023391"></rect>
                        <rect id="Rectangle-2" fill="#A8A9AD" x="49.4384277" y="114.401044" width="60.1692492" height="29.9438973"></rect>
                        <path d="M53.6313406,140.265551 C53.6313406,140.243477 53.9339973,139.246717 54.3039108,138.05053 C55.0371389,135.679498 55.1771199,135.32701 55.6499153,134.661151 C56.6434645,133.26189 58.1701255,132.382778 60.0308451,132.138445 C60.4362906,132.085204 61.3689658,132.075469 66.0634304,132.075469 L71.6164201,132.075469 L71.592551,132.169948 C71.5794222,132.221913 71.4021363,132.840754 71.1985811,133.545151 L70.8284804,134.825873 L67.6689706,134.847249 C64.5300236,134.868482 64.5076451,134.869234 64.2305073,134.96317 C63.9168645,135.069477 63.5197104,135.342865 63.3452421,135.572556 C63.1215438,135.867057 63.0257749,136.141153 62.520434,137.933201 C62.2403925,138.926285 61.973637,139.866358 61.9276432,140.022249 L61.8440204,140.305687 L57.7376801,140.305687 C55.1545773,140.305687 53.6313406,140.290798 53.6313406,140.265551 Z" id="path6794" fill="#000000" fill-rule="nonzero"></path>
                        <path d="M97.797104,134.721901 C97.846505,134.574364 100.336536,126.037163 100.375179,125.882814 L100.404093,125.767339 L98.576049,125.767339 C97.5158799,125.767339 96.7480047,125.751409 96.7480047,125.729413 C96.7480047,125.708551 96.815713,125.496632 96.8984657,125.258479 C97.1406975,124.561384 97.4503284,124.17847 97.9807678,123.920014 C98.51544,123.659496 98.3625545,123.667794 102.628371,123.667794 C106.315778,123.667794 106.519775,123.671668 106.499439,123.741277 C106.487634,123.781692 106.391109,124.126546 106.284929,124.507612 C106.178754,124.888681 106.0543,125.32801 106.00836,125.4839 L105.924833,125.767339 L104.2949,125.767339 L102.664965,125.767339 L102.603571,125.977133 C102.5698,126.092519 101.979071,128.133278 101.290832,130.512151 L100.039487,134.837376 L98.8989638,134.837376 L97.7584337,134.837376 L97.797104,134.721901 Z M86.5778526,134.774877 C85.9169413,134.630861 85.5284505,134.246946 85.4235477,133.634162 C85.3806043,133.383308 85.3830107,133.283813 85.4387536,133.005493 C85.5715215,132.342595 87.3176567,126.387306 87.4661724,126.090877 C88.0809092,124.863882 89.0643168,124.116323 90.522952,123.767191 C90.775664,123.706704 91.1669193,123.694563 93.3420419,123.679722 C95.4083349,123.66562 95.8676226,123.672517 95.8672953,123.717628 C95.866201,123.869404 95.3963546,125.294706 95.3028658,125.42984 C95.243994,125.514937 95.1159168,125.630408 95.0182483,125.686447 L94.8406649,125.788334 L92.9333262,125.812283 C91.3143533,125.832613 90.98796,125.847035 90.7744698,125.907672 C90.4182819,126.008837 90.0428572,126.200779 89.8274206,126.391861 C89.4597199,126.717996 89.4328557,126.791309 88.5556769,129.862477 C88.1075153,131.431574 87.7445161,132.719065 87.7490124,132.72357 C87.7535066,132.728072 88.436075,132.737847 89.2658278,132.745291 L90.7744698,132.758826 L91.0069397,132.649602 C91.5775357,132.381516 91.6389235,132.267431 92.1626279,130.501814 C92.1829528,130.433292 92.1177359,130.42833 91.1964896,130.42833 C90.5452307,130.42833 90.208556,130.413559 90.208556,130.384985 C90.208556,130.361144 90.26801,130.187205 90.3406779,129.998454 C90.4998415,129.585025 90.7399771,129.306789 91.0835673,129.137704 L91.3194234,129.021634 L93.0486049,129.009383 C93.9996543,129.002646 94.7777855,129.009915 94.7777855,129.025645 C94.7777855,129.041326 94.512323,129.963293 94.1878676,131.074456 C93.5265961,133.339119 93.475595,133.460746 92.9784158,133.958708 C92.5494571,134.388341 92.0349046,134.653624 91.3890951,134.778091 C90.9595169,134.860884 86.960297,134.858213 86.5778526,134.774866 L86.5778526,134.774877 Z M79.1531547,132.735718 C80.1658011,132.658948 80.7005955,132.465158 81.1986724,131.994496 C81.7689614,131.455599 82.160188,130.633988 82.5380766,129.181617 C83.0254907,127.308298 82.9098645,126.350549 82.1518562,125.982476 C81.7489213,125.786819 81.493837,125.763009 79.943348,125.776322 L78.5441232,125.788334 L77.5434826,129.252584 C76.9931307,131.157923 76.5428293,132.731007 76.5428144,132.748328 C76.5427804,132.795398 78.4900208,132.785988 79.1531547,132.735718 Z M73.712114,134.787202 C73.7225686,134.757059 74.4028453,132.398755 75.2238509,129.546521 C76.0448565,126.69429 76.7635113,124.204753 76.8208617,124.014219 L76.9251355,123.667794 L79.4482502,123.667794 C81.0305491,123.667794 82.1120449,123.685177 82.3486425,123.714222 C84.7929781,124.014279 85.5394704,125.722035 84.6960862,129.0845 C84.3060198,130.639645 83.8466365,131.778599 83.3043295,132.535087 C83.0907755,132.832988 82.6055278,133.345761 82.3067222,133.589285 C81.8568681,133.955916 81.0360697,134.412115 80.5239449,134.580153 C79.827998,134.808506 79.841708,134.807636 76.6584927,134.82537 C74.232136,134.838884 73.6965681,134.831925 73.712114,134.787084 L73.712114,134.787202 Z" id="path6762" fill="#000000" fill-rule="nonzero"></path>
                        <path d="M52.8876203,130.685732 C52.88759,130.656862 53.061654,130.023851 53.2744293,129.279036 L53.6612936,127.92483 L63.2674585,127.92483 L72.873623,127.92483 L72.4861437,129.264793 C72.2730306,130.001773 72.08716,130.634785 72.0731005,130.671489 C72.0498423,130.732201 71.1834071,130.73822 62.4676065,130.73822 C54.8316376,130.73822 52.8876645,130.727568 52.8876203,130.685732 Z" id="path6760" fill="#000000" fill-rule="nonzero"></path>
                        <path d="M54.0852142,126.390245 C54.1102294,126.29026 54.5337208,124.82345 54.7823127,123.975768 L54.8654337,123.692329 L57.8923458,123.691584 C61.2325699,123.690733 61.2649801,123.688594 61.7467271,123.431889 C62.0677571,123.260822 62.4119073,122.917309 62.5510064,122.629094 C62.6087425,122.509467 62.9211911,121.47736 63.2453373,120.335523 C63.5694825,119.193686 63.8406185,118.25352 63.8478591,118.246267 C63.8551051,118.239014 65.7095833,118.237896 67.9689334,118.243781 L72.0768417,118.254487 L71.3751277,120.501001 C70.9714512,121.793357 70.6078018,122.881274 70.5189346,123.062446 C70.2489227,123.612913 69.8383572,124.184766 69.3908745,124.633662 C68.3178498,125.710077 66.9132373,126.322537 65.19505,126.463192 C64.9019105,126.487189 62.4731091,126.50465 59.3741698,126.505036 L54.0563236,126.505675 L54.0852142,126.3902 L54.0852142,126.390245 Z" id="path6756" fill="#000000" fill-rule="nonzero"></path>
                        <rect id="Rectangle-9" fill="#FFFFFF" x="28.7432719" y="28.4083129" width="16.4794759" height="81.0020813"></rect>
                        <g id="Group-4" transform="translate(32.958952, 36.470131)" fill="#000000">
                            <rect id="Rectangle-3" x="0" y="0" width="8.04811613" height="2.38681063"></rect>
                            <rect id="Rectangle-3" x="0" y="1.9194806" width="8.04811613" height="2.38681063"></rect>
                            <rect id="Rectangle-3" x="0" y="6.91013015" width="8.04811613" height="2.38681063"></rect>
                            <rect id="Rectangle-3" x="0" y="8.44571463" width="8.04811613" height="2.39216566"></rect>
                            <rect id="Rectangle-3" x="0" y="12.2846758" width="8.04811613" height="2.39216566"></rect>
                            <rect id="Rectangle-3" x="0" y="16.5075331" width="8.04811613" height="2.39216566"></rect>
                            <rect id="Rectangle-3" x="0" y="24.5693517" width="8.04811613" height="2.39216566"></rect>
                            <rect id="Rectangle-3" x="0" y="28.4083129" width="8.04811613" height="2.39216566"></rect>
                            <rect id="Rectangle-3" x="0" y="32.2472741" width="8.04811613" height="2.39216566"></rect>
                            <rect id="Rectangle-3" x="0" y="36.4701314" width="8.04811613" height="2.39216566"></rect>
                            <rect id="Rectangle-3" x="0" y="40.6929887" width="8.04811613" height="2.39216566"></rect>
                            <rect id="Rectangle-3" x="0" y="44.5319499" width="8.04811613" height="2.39216566"></rect>
                            <rect id="Rectangle-3" x="0" y="47.2192227" width="8.04811613" height="2.39216566"></rect>
                            <rect id="Rectangle-3" x="0" y="52.5937684" width="8.04811613" height="2.39216566"></rect>
                            <rect id="Rectangle-3" x="0" y="60.6555869" width="8.04811613" height="2.39216566"></rect>
                            <rect id="Rectangle-3" x="0" y="61.4233791" width="8.04811613" height="2.39216566"></rect>
                            <rect id="Rectangle-3" x="0" y="33.3989624" width="8.04811613" height="2.38681063"></rect>
                            <rect id="Rectangle-3" x="0" y="37.6218197" width="8.04811613" height="2.38681063"></rect>
                            <rect id="Rectangle-3" x="0" y="49.9064956" width="8.04811613" height="2.38681063"></rect>
                            <rect id="Rectangle-3" x="0" y="53.7454568" width="8.04811613" height="2.38681063"></rect>
                            <rect id="Rectangle-3" x="0" y="56.0488335" width="8.04811613" height="2.38681063"></rect>
                            <rect id="Rectangle-3" x="0" y="58.7361063" width="8.04811613" height="2.38681063"></rect>
                            <rect id="Rectangle-3" x="0" y="63.7267559" width="8.04811613" height="2.38681063"></rect>
                            <rect id="Rectangle-3" x="0" y="48.3709111" width="8.04811613" height="2.38681063"></rect>
                            <rect id="Rectangle-3" x="0" y="41.4607809" width="8.04811613" height="2.68727284"></rect>
                            <rect id="Rectangle-3" x="0" y="45.2997421" width="8.04811613" height="2.38681063"></rect>
                            <rect id="Rectangle-3" x="0" y="20.7303905" width="8.04811613" height="2.39216566"></rect>
                            <rect id="Rectangle-3" x="0" y="21.4981827" width="8.04811613" height="2.38681063"></rect>
                            <rect id="Rectangle-3" x="0" y="22.6498711" width="8.04811613" height="2.38681063"></rect>
                            <rect id="Rectangle-3" x="0" y="25.3371439" width="8.04811613" height="2.68727284"></rect>
                            <rect id="Rectangle-3" x="0" y="17.6592215" width="8.04811613" height="2.38681063"></rect>
                            <rect id="Rectangle-3" x="0" y="29.5600012" width="8.04811613" height="2.38681063"></rect>
                            <rect id="Rectangle-3" x="0" y="3.8389612" width="8.04811613" height="2.38681063"></rect>
                            <rect id="Rectangle-3" x="0" y="9.21350687" width="8.04811613" height="2.68727284"></rect>
                            <rect id="Rectangle-3" x="0" y="13.0524681" width="8.04811613" height="2.68727284"></rect>
                        </g>
                    </g>
                </g>
                <path d="M-10.1123073,76.2018328 L-10.1123073,75.6068688 C-9.55278378,75.5522583 -9.16255784,75.4610026 -8.94161779,75.3330991 C-8.72067773,75.2051956 -8.5556925,74.9026867 -8.44665715,74.4255634 L-7.83548836,74.4255634 L-7.83548836,80.5735248 L-8.66185743,80.5735248 L-8.66185743,76.2018328 L-10.1123073,76.2018328 Z M-2.00991556,74.9105884 C-1.73876186,75.2684309 -1.60318704,75.6370462 -1.60318704,76.0164454 L-2.36930003,76.0164454 C-2.41520965,75.7721353 -2.48837701,75.5810014 -2.58880431,75.4430381 C-2.77531215,75.1843568 -3.05793902,75.0550181 -3.43669341,75.0550181 C-3.86996547,75.0550181 -4.21428247,75.2554931 -4.46965474,75.6564491 C-4.72502701,76.0574051 -4.86705778,76.6315252 -4.89575129,77.3788268 C-4.7178515,77.1172712 -4.49404545,76.9218261 -4.22432642,76.7924854 C-3.9775622,76.677516 -3.7021086,76.6200321 -3.39795736,76.6200321 C-2.88147411,76.6200321 -2.4309927,76.7852982 -2.04649961,77.1158354 C-1.66200653,77.4463726 -1.46976287,77.9392968 -1.46976287,78.5946228 C-1.46976287,79.1550989 -1.65196395,79.6516158 -2.01637157,80.0841885 C-2.3807792,80.5167611 -2.90012401,80.7330441 -3.57442158,80.7330441 C-4.15116121,80.7330441 -4.64898621,80.5138869 -5.06791151,80.0755658 C-5.48683682,79.6372447 -5.69629632,78.8992955 -5.69629632,77.8616961 C-5.69629632,77.0942749 -5.6030438,76.4432701 -5.41653596,75.9086621 C-5.05786704,74.8854339 -4.40223008,74.3738274 -3.44960542,74.3738274 C-2.76096109,74.3738274 -2.28106927,74.552746 -2.00991556,74.9105884 Z M-2.59095631,79.6314985 C-2.38866704,79.3570089 -2.28752392,79.0329435 -2.28752392,78.6592928 C-2.28752392,78.3431268 -2.37790714,78.042055 -2.55867627,77.7560684 C-2.73944541,77.4700819 -3.06798122,77.3270908 -3.54429355,77.3270908 C-3.87713831,77.3270908 -4.16909043,77.4377472 -4.42015868,77.6590634 C-4.67122692,77.8803797 -4.79675916,78.2137861 -4.79675916,78.6592928 C-4.79675916,79.050189 -4.68270416,79.3785656 -4.45459072,79.6444325 C-4.22647729,79.9102993 -3.91013604,80.0432308 -3.5055575,80.0432308 C-3.0981096,80.0432308 -2.79324559,79.9059881 -2.59095631,79.6314985 Z M-0.449612277,74.2401761 L0.777029307,74.2401761 L2.59331965,79.5948521 L4.39669798,74.2401761 L5.61042755,74.2401761 L5.61042755,80.5735248 L4.7969705,80.5735248 L4.7969705,76.8355988 C4.7969705,76.7062581 4.79983981,76.4921307 4.80557851,76.1932101 C4.81131721,75.8942895 4.81418652,75.5738169 4.81418652,75.2317827 L3.01080819,80.5735248 L2.1629191,80.5735248 L0.346628751,75.2317827 L0.346628751,75.4257927 C0.346628751,75.5810015 0.350215387,75.8174039 0.357388765,76.1350071 C0.364562144,76.4526102 0.368148779,76.6861385 0.368148779,76.8355988 L0.368148779,80.5735248 L-0.449612277,80.5735248 L-0.449612277,74.2401761 Z M9.31627761,76.9175141 C9.67781588,76.9175141 9.9590081,76.8672157 10.1598627,76.7666174 C10.4754913,76.6085344 10.6333033,76.3239893 10.6333033,75.9129734 C10.6333033,75.4990833 10.4654488,75.2202866 10.1297347,75.0765747 C9.94035747,74.9960961 9.65916525,74.9558574 9.28614957,74.9558574 L7.75822759,74.9558574 L7.75822759,76.9175141 L9.31627761,76.9175141 Z M9.60464598,79.8405981 C10.1297373,79.8405981 10.504182,79.6882659 10.7279914,79.3835968 C10.8685896,79.1910229 10.9388877,78.9582133 10.9388877,78.6851608 C10.9388877,78.2252829 10.7337322,77.9119958 10.3234149,77.7452901 C10.1053442,77.6561888 9.81697871,77.6116388 9.45830979,77.6116388 L7.75822759,77.6116388 L7.75822759,79.8405981 L9.60464598,79.8405981 Z M6.91894651,74.2401761 L9.63477402,74.2401761 C10.3750667,74.2401761 10.9015848,74.461489 11.2143441,74.9041214 C11.3979825,75.1656769 11.4898004,75.4674673 11.4898004,75.8095014 C11.4898004,76.2090203 11.3764627,76.5366784 11.149784,76.7924854 C11.0321406,76.9275746 10.8628514,77.0511649 10.6419113,77.1632601 C10.966148,77.2868523 11.2086046,77.4262507 11.3692883,77.5814594 C11.653354,77.8573862 11.7953848,78.2382168 11.7953848,78.7239628 C11.7953848,79.1321044 11.6677006,79.5014382 11.4123283,79.8319755 C11.0307046,80.3263442 10.4238459,80.5735248 9.59173396,80.5735248 L6.91894651,80.5735248 L6.91894651,74.2401761 Z M12.540079,77.7151108 L14.7006898,77.7151108 L14.7006898,78.5127074 L12.540079,78.5127074 L12.540079,77.7151108 Z M19.250125,75.3869907 C19.5255827,75.8957306 19.6633095,76.5927226 19.6633095,77.4779874 C19.6633095,78.3172645 19.5384946,79.0113823 19.288861,79.5603615 C18.9273228,80.3479023 18.3362452,80.7416668 17.5156107,80.7416668 C16.7753181,80.7416668 16.2244109,80.4197571 15.8628726,79.7759281 C15.5615907,79.2384459 15.410952,78.5170233 15.410952,77.6116388 C15.410952,76.910325 15.5013352,76.3081815 15.6821044,75.8051901 C16.0206878,74.8681889 16.6332852,74.3996954 17.5199147,74.3996954 C18.3175944,74.3996954 18.8943254,74.7287906 19.250125,75.3869907 Z M18.4711,79.5000028 C18.7092561,79.1435974 18.8283324,78.4796587 18.8283324,77.5081668 C18.8283324,76.806853 18.7422532,76.2298587 18.5700921,75.7771664 C18.397931,75.3244742 18.0636566,75.0981314 17.5672588,75.0981314 C17.1110319,75.0981314 16.7774748,75.3129774 16.5665775,75.7426758 C16.3556802,76.1723741 16.2502331,76.8054152 16.2502331,77.6418181 C16.2502331,78.2712759 16.3176619,78.777134 16.4525214,79.1594075 C16.6591147,79.7428775 17.0120396,80.0346081 17.5113067,80.0346081 C17.9130159,80.0346081 18.2329438,79.8564081 18.4711,79.5000028 Z M24.1783126,75.3869907 C24.4537703,75.8957306 24.5914971,76.5927226 24.5914971,77.4779874 C24.5914971,78.3172645 24.4666822,79.0113823 24.2170487,79.5603615 C23.8555104,80.3479023 23.2644329,80.7416668 22.4437984,80.7416668 C21.7035057,80.7416668 21.1525985,80.4197571 20.7910602,79.7759281 C20.4897783,79.2384459 20.3391397,78.5170233 20.3391397,77.6116388 C20.3391397,76.910325 20.4295229,76.3081815 20.610292,75.8051901 C20.9488755,74.8681889 21.5614728,74.3996954 22.4481024,74.3996954 C23.2457821,74.3996954 23.822513,74.7287906 24.1783126,75.3869907 Z M23.3992876,79.5000028 C23.6374438,79.1435974 23.7565201,78.4796587 23.7565201,77.5081668 C23.7565201,76.806853 23.6704408,76.2298587 23.4982797,75.7771664 C23.3261187,75.3244742 22.9918442,75.0981314 22.4954464,75.0981314 C22.0392196,75.0981314 21.7056625,75.3129774 21.4947652,75.7426758 C21.2838678,76.1723741 21.1784207,76.8054152 21.1784207,77.6418181 C21.1784207,78.2712759 21.2458495,78.777134 21.380709,79.1594075 C21.5873023,79.7428775 21.9402272,80.0346081 22.4394944,80.0346081 C22.8412036,80.0346081 23.1611314,79.8564081 23.3992876,79.5000028 Z M29.1065003,75.3869907 C29.381958,75.8957306 29.5196848,76.5927226 29.5196848,77.4779874 C29.5196848,78.3172645 29.3948699,79.0113823 29.1452363,79.5603615 C28.783698,80.3479023 28.1926205,80.7416668 27.371986,80.7416668 C26.6316934,80.7416668 26.0807862,80.4197571 25.7192479,79.7759281 C25.417966,79.2384459 25.2673273,78.5170233 25.2673273,77.6116388 C25.2673273,76.910325 25.3577105,76.3081815 25.5384796,75.8051901 C25.8770631,74.8681889 26.4896604,74.3996954 27.37629,74.3996954 C28.1739697,74.3996954 28.7507007,74.7287906 29.1065003,75.3869907 Z M28.3274752,79.5000028 C28.5656314,79.1435974 28.6847077,78.4796587 28.6847077,77.5081668 C28.6847077,76.806853 28.5986285,76.2298587 28.4264674,75.7771664 C28.2543063,75.3244742 27.9200319,75.0981314 27.4236341,75.0981314 C26.9674072,75.0981314 26.6338501,75.3129774 26.4229528,75.7426758 C26.2120555,76.1723741 26.1066084,76.8054152 26.1066084,77.6418181 C26.1066084,78.2712759 26.1740371,78.777134 26.3088966,79.1594075 C26.5154899,79.7428775 26.8684149,80.0346081 27.367682,80.0346081 C27.7693912,80.0346081 28.0893191,79.8564081 28.3274752,79.5000028 Z M34.0346879,75.3869907 C34.3101456,75.8957306 34.4478724,76.5927226 34.4478724,77.4779874 C34.4478724,78.3172645 34.3230575,79.0113823 34.0734239,79.5603615 C33.7118857,80.3479023 33.1208081,80.7416668 32.3001736,80.7416668 C31.559881,80.7416668 31.0089738,80.4197571 30.6474355,79.7759281 C30.3461536,79.2384459 30.1955149,78.5170233 30.1955149,77.6116388 C30.1955149,76.910325 30.2858981,76.3081815 30.4666673,75.8051901 C30.8052507,74.8681889 31.4178481,74.3996954 32.3044777,74.3996954 C33.1021573,74.3996954 33.6788883,74.7287906 34.0346879,75.3869907 Z M33.2556629,79.5000028 C33.493819,79.1435974 33.6128953,78.4796587 33.6128953,77.5081668 C33.6128953,76.806853 33.5268161,76.2298587 33.354655,75.7771664 C33.1824939,75.3244742 32.8482195,75.0981314 32.3518217,75.0981314 C31.8955948,75.0981314 31.5620378,75.3129774 31.3511404,75.7426758 C31.1402431,76.1723741 31.034796,76.8054152 31.034796,77.6418181 C31.034796,78.2712759 31.1022248,78.777134 31.2370843,79.1594075 C31.4436776,79.7428775 31.7966025,80.0346081 32.2958696,80.0346081 C32.6975788,80.0346081 33.0175067,79.8564081 33.2556629,79.5000028 Z M38.9628755,75.3869907 C39.2383333,75.8957306 39.3760601,76.5927226 39.3760601,77.4779874 C39.3760601,78.3172645 39.2512451,79.0113823 39.0016116,79.5603615 C38.6400733,80.3479023 38.0489958,80.7416668 37.2283613,80.7416668 C36.4880686,80.7416668 35.9371614,80.4197571 35.5756232,79.7759281 C35.2743413,79.2384459 35.1237026,78.5170233 35.1237026,77.6116388 C35.1237026,76.910325 35.2140858,76.3081815 35.3948549,75.8051901 C35.7334384,74.8681889 36.3460357,74.3996954 37.2326653,74.3996954 C38.030345,74.3996954 38.607076,74.7287906 38.9628755,75.3869907 Z M38.1838505,79.5000028 C38.4220067,79.1435974 38.541083,78.4796587 38.541083,77.5081668 C38.541083,76.806853 38.4550037,76.2298587 38.2828426,75.7771664 C38.1106816,75.3244742 37.7764071,75.0981314 37.2800094,75.0981314 C36.8237825,75.0981314 36.4902254,75.3129774 36.2793281,75.7426758 C36.0684307,76.1723741 35.9629837,76.8054152 35.9629837,77.6418181 C35.9629837,78.2712759 36.0304124,78.777134 36.1652719,79.1594075 C36.3718652,79.7428775 36.7247901,80.0346081 37.2240573,80.0346081 C37.6257665,80.0346081 37.9456944,79.8564081 38.1838505,79.5000028 Z M43.8910632,75.3869907 C44.1665209,75.8957306 44.3042477,76.5927226 44.3042477,77.4779874 C44.3042477,78.3172645 44.1794328,79.0113823 43.9297992,79.5603615 C43.5682609,80.3479023 42.9771834,80.7416668 42.1565489,80.7416668 C41.4162563,80.7416668 40.8653491,80.4197571 40.5038108,79.7759281 C40.2025289,79.2384459 40.0518902,78.5170233 40.0518902,77.6116388 C40.0518902,76.910325 40.1422734,76.3081815 40.3230426,75.8051901 C40.661626,74.8681889 41.2742233,74.3996954 42.1608529,74.3996954 C42.9585326,74.3996954 43.5352636,74.7287906 43.8910632,75.3869907 Z M43.1120382,79.5000028 C43.3501943,79.1435974 43.4692706,78.4796587 43.4692706,77.5081668 C43.4692706,76.806853 43.3831914,76.2298587 43.2110303,75.7771664 C43.0388692,75.3244742 42.7045948,75.0981314 42.208197,75.0981314 C41.7519701,75.0981314 41.418413,75.3129774 41.2075157,75.7426758 C40.9966184,76.1723741 40.8911713,76.8054152 40.8911713,77.6418181 C40.8911713,78.2712759 40.9586,78.777134 41.0934595,79.1594075 C41.3000528,79.7428775 41.6529778,80.0346081 42.1522449,80.0346081 C42.5539541,80.0346081 42.873882,79.8564081 43.1120382,79.5000028 Z M48.8192508,75.3869907 C49.0947085,75.8957306 49.2324353,76.5927226 49.2324353,77.4779874 C49.2324353,78.3172645 49.1076204,79.0113823 48.8579868,79.5603615 C48.4964486,80.3479023 47.9053711,80.7416668 47.0847366,80.7416668 C46.3444439,80.7416668 45.7935367,80.4197571 45.4319984,79.7759281 C45.1307165,79.2384459 44.9800778,78.5170233 44.9800778,77.6116388 C44.9800778,76.910325 45.0704611,76.3081815 45.2512302,75.8051901 C45.5898137,74.8681889 46.202411,74.3996954 47.0890406,74.3996954 C47.8867202,74.3996954 48.4634512,74.7287906 48.8192508,75.3869907 Z M48.0402258,79.5000028 C48.278382,79.1435974 48.3974583,78.4796587 48.3974583,77.5081668 C48.3974583,76.806853 48.311379,76.2298587 48.1392179,75.7771664 C47.9670568,75.3244742 47.6327824,75.0981314 47.1363846,75.0981314 C46.6801578,75.0981314 46.3466007,75.3129774 46.1357033,75.7426758 C45.924806,76.1723741 45.8193589,76.8054152 45.8193589,77.6418181 C45.8193589,78.2712759 45.8867877,78.777134 46.0216472,79.1594075 C46.2282405,79.7428775 46.5811654,80.0346081 47.0804326,80.0346081 C47.4821417,80.0346081 47.8020696,79.8564081 48.0402258,79.5000028 Z M53.7474384,75.3869907 C54.0228962,75.8957306 54.160623,76.5927226 54.160623,77.4779874 C54.160623,78.3172645 54.0358081,79.0113823 53.7861745,79.5603615 C53.4246362,80.3479023 52.8335587,80.7416668 52.0129242,80.7416668 C51.2726315,80.7416668 50.7217243,80.4197571 50.3601861,79.7759281 C50.0589042,79.2384459 49.9082655,78.5170233 49.9082655,77.6116388 C49.9082655,76.910325 49.9986487,76.3081815 50.1794178,75.8051901 C50.5180013,74.8681889 51.1305986,74.3996954 52.0172282,74.3996954 C52.8149079,74.3996954 53.3916389,74.7287906 53.7474384,75.3869907 Z M52.9684134,79.5000028 C53.2065696,79.1435974 53.3256459,78.4796587 53.3256459,77.5081668 C53.3256459,76.806853 53.2395666,76.2298587 53.0674056,75.7771664 C52.8952445,75.3244742 52.5609701,75.0981314 52.0645723,75.0981314 C51.6083454,75.0981314 51.2747883,75.3129774 51.063891,75.7426758 C50.8529936,76.1723741 50.7475466,76.8054152 50.7475466,77.6418181 C50.7475466,78.2712759 50.8149753,78.777134 50.9498348,79.1594075 C51.1564281,79.7428775 51.509353,80.0346081 52.0086202,80.0346081 C52.4103294,80.0346081 52.7302573,79.8564081 52.9684134,79.5000028 Z" id="16MB-00000000" fill="#000000" transform="translate(22.024158, 77.490921) rotate(-90.000000) translate(-22.024158, -77.490921) "></path>
                <path d="M59.0569444,55.8568854 L59.0569444,64.3858275 L68.5407271,64.3858275 C70.234892,64.3858275 71.6102887,64.0665421 72.6669585,63.4279617 C73.7236284,62.7893813 74.2519554,61.6565742 74.2519554,60.0295063 C74.2519554,58.2274849 73.5533412,57.0378187 72.1560918,56.4604721 C70.9509642,56.058079 69.414013,55.8568854 67.5451919,55.8568854 L59.0569444,55.8568854 Z M59.0569444,70.7890948 L59.0569444,81.1025541 L68.5407271,81.1025541 C70.234892,81.1025541 71.5535263,80.8751179 72.4966696,80.4202387 C74.2083001,79.5804617 75.0641025,77.9709134 75.0641025,75.5915453 C75.0641025,73.5795797 74.2344981,72.1974675 72.5752645,71.4451673 C71.6495868,71.0252788 70.3484178,70.8065902 68.6717186,70.7890948 L59.0569444,70.7890948 Z M80.17277,53.2588384 C81.3604319,54.9034016 81.954254,56.8715994 81.954254,59.1634907 C81.954254,61.5253634 81.3604319,63.4235807 80.17277,64.8581997 C79.5090765,65.662986 78.5310166,66.3977798 77.238561,67.0626032 C79.2121757,67.7799127 80.7010972,68.9170936 81.7053702,70.47418 C82.7096432,72.0312665 83.2117722,73.9207363 83.2117722,76.1426462 C83.2117722,78.4345375 82.6354154,80.4902107 81.4826847,82.3097274 C80.7491288,83.5169068 79.8321976,84.5316221 78.7318638,85.3539037 C77.4918049,86.2986528 76.0290815,86.9459711 74.3436494,87.2958782 C72.6582173,87.6457853 70.8287214,87.8207362 68.8551067,87.8207362 L51.3546458,87.8207362 L51.3546458,49.1387033 L70.1126248,49.1387033 C74.845807,49.2086847 78.1991552,50.5820494 80.17277,53.2588384 Z" id="B" fill="#000000"></path>
            </g>
        </g>
    </g>
</svg>